<svg aria-hidden="true" style="position: absolute; width: 0; height: 0; overflow: hidden;" version="1.1" xmlns="http://www.w3.org/2000/svg" xmlns:xlink="http://www.w3.org/1999/xlink">
<defs>
<symbol id="icon-antenna-1" viewBox="0 0 32 32">
<path fill="#212121" style="fill: var(--color1, #212121)" d="M30.773 22.098l-8.443-8.505 0.937-4.615c0.242 0.094 0.499 0.144 0.758 0.146h0.006c1.192 0.014 2.17-0.941 2.184-2.133s-0.941-2.17-2.133-2.184c-1.192-0.014-2.17 0.941-2.184 2.133-0.003 0.255 0.039 0.509 0.125 0.749l-4.96 0.605-8.091-8.133c-0.099-0.101-0.235-0.159-0.377-0.16-0.14 0.001-0.274 0.056-0.373 0.155l-1.513 1.504c-0.208 0.208-0.208 0.546 0 0.754l0.814 0.826c-3.153 5.798-2.129 12.978 2.519 17.663 0.043 0.041 0.092 0.074 0.146 0.098-0.034 0.18-0.051 0.364-0.052 0.547v6.187h-6.4c-1.472 0.002-2.665 1.195-2.667 2.667v1.067c0 0.295 0.239 0.533 0.533 0.533h24.533c0.295 0 0.533-0.239 0.533-0.533v-1.067c-0.002-1.472-1.195-2.665-2.667-2.667h-6.4v-2.742c1.003 0.21 2.024 0.317 3.049 0.32 2.458-0.003 4.877-0.615 7.040-1.783l0.818 0.823c0.099 0.101 0.235 0.159 0.377 0.16 0.14-0.001 0.274-0.056 0.373-0.155l1.513-1.504c0.208-0.208 0.208-0.546 0-0.754zM23.28 6.233c0.418-0.415 1.093-0.414 1.508 0.004s0.414 1.093-0.004 1.508c-0.2 0.199-0.47 0.31-0.752 0.31h-0.003c-0.589-0.003-1.064-0.483-1.061-1.072 0.002-0.282 0.115-0.552 0.314-0.751h-0.002zM22.024 9.738l-0.598 2.946-1.175-1.182 1.774-1.763zM21.419 8.836l-1.92 1.909-1.485-1.493 3.405-0.415zM24.004 28.8c0.884 0 1.6 0.716 1.6 1.6v0.533h-23.467v-0.533c0-0.884 0.716-1.6 1.6-1.6h20.267zM16.537 26.667v1.067h-5.333v-1.067h5.333zM11.204 25.6v-4.053c0-1.294 1.196-2.347 2.667-2.347s2.667 1.053 2.667 2.347v4.053h-5.333zM17.604 23.904v-2.357c0-1.882-1.675-3.413-3.733-3.413-1.331-0.020-2.576 0.657-3.281 1.786-4.058-4.274-4.971-10.645-2.279-15.887l18.602 18.708c-2.872 1.461-6.165 1.873-9.309 1.163zM28.893 23.22l-21.057-21.181 0.755-0.752 7.935 7.98c0.004 0 0.006 0.007 0.010 0.010l13.115 13.191-0.757 0.752z"></path>
<path fill="#2196f3" style="fill: var(--color2, #2196f3)" d="M13.876 20.267h-0.005c-0.884-0.001-1.601 0.714-1.602 1.598s0.714 1.601 1.598 1.602h0.005c0.884 0.001 1.601-0.714 1.602-1.598s-0.714-1.601-1.598-1.602zM14.249 22.245c-0.1 0.1-0.236 0.156-0.378 0.155-0.295-0.002-0.532-0.242-0.531-0.536 0.001-0.141 0.057-0.276 0.157-0.375s0.233-0.154 0.373-0.155c0.295 0.002 0.532 0.241 0.53 0.536-0.001 0.141-0.057 0.276-0.157 0.375h0.005z"></path>
</symbol>
<symbol id="icon-astronaut-1" viewBox="0 0 32 32">
<path fill="#2196f3" style="fill: var(--color2, #2196f3)" d="M31.974 4.524c-0.063-0.193-0.229-0.333-0.43-0.363l-1.91-0.278-0.855-1.731c-0.179-0.365-0.777-0.365-0.956 0l-0.855 1.731-1.91 0.278c-0.201 0.029-0.367 0.17-0.431 0.363-0.062 0.193-0.011 0.405 0.135 0.547l1.383 1.348-0.326 1.903c-0.034 0.2 0.048 0.402 0.212 0.522 0.166 0.121 0.382 0.135 0.562 0.040l1.709-0.899 1.709 0.899c0.078 0.041 0.164 0.061 0.249 0.061 0.11 0 0.221-0.034 0.314-0.102 0.164-0.119 0.246-0.322 0.212-0.522l-0.326-1.903 1.383-1.348c0.145-0.142 0.197-0.354 0.135-0.547zM29.511 5.851c-0.125 0.122-0.183 0.299-0.153 0.472l0.191 1.114-1-0.526c-0.078-0.041-0.163-0.061-0.249-0.061s-0.17 0.020-0.249 0.061l-1.001 0.526 0.191-1.114c0.030-0.173-0.028-0.349-0.153-0.472l-0.81-0.789 1.119-0.163c0.174-0.025 0.324-0.134 0.402-0.292l0.5-1.013 0.5 1.013c0.078 0.157 0.228 0.267 0.402 0.292l1.119 0.163-0.809 0.789z"></path>
<path fill="#2196f3" style="fill: var(--color2, #2196f3)" d="M26.134 20.522h-1.067v1.067h1.067v-1.067z"></path>
<path fill="#2196f3" style="fill: var(--color2, #2196f3)" d="M26.134 22.656h-1.067v1.067h1.067v-1.067z"></path>
<path fill="#2196f3" style="fill: var(--color2, #2196f3)" d="M27.2 21.589h-1.067v1.067h1.067v-1.067z"></path>
<path fill="#2196f3" style="fill: var(--color2, #2196f3)" d="M25.067 21.589h-1.067v1.067h1.067v-1.067z"></path>
<path fill="#2196f3" style="fill: var(--color2, #2196f3)" d="M22.4 26.389h-1.067v1.067h1.067v-1.067z"></path>
<path fill="#2196f3" style="fill: var(--color2, #2196f3)" d="M22.4 28.522h-1.067v1.067h1.067v-1.067z"></path>
<path fill="#2196f3" style="fill: var(--color2, #2196f3)" d="M23.467 27.456h-1.067v1.067h1.067v-1.067z"></path>
<path fill="#2196f3" style="fill: var(--color2, #2196f3)" d="M21.333 27.456h-1.067v1.067h1.067v-1.067z"></path>
<path fill="#2196f3" style="fill: var(--color2, #2196f3)" d="M16 24.256h-1.067v1.067h1.067v-1.067z"></path>
<path fill="#2196f3" style="fill: var(--color2, #2196f3)" d="M16 26.389h-1.067v1.067h1.067v-1.067z"></path>
<path fill="#2196f3" style="fill: var(--color2, #2196f3)" d="M17.067 25.322h-1.067v1.067h1.067v-1.067z"></path>
<path fill="#2196f3" style="fill: var(--color2, #2196f3)" d="M14.933 25.322h-1.067v1.067h1.067v-1.067z"></path>
<path fill="#2196f3" style="fill: var(--color2, #2196f3)" d="M5.867 6.122h-1.067v1.067h1.067v-1.067z"></path>
<path fill="#2196f3" style="fill: var(--color2, #2196f3)" d="M5.867 8.255h-1.067v1.067h1.067v-1.067z"></path>
<path fill="#2196f3" style="fill: var(--color2, #2196f3)" d="M6.933 7.189h-1.067v1.067h1.067v-1.067z"></path>
<path fill="#2196f3" style="fill: var(--color2, #2196f3)" d="M4.8 7.189h-1.067v1.067h1.067v-1.067z"></path>
<path fill="#212121" style="fill: var(--color1, #212121)" d="M24.715 14.159c-0.287-0.388-0.709-0.637-1.188-0.705-0.481-0.068-0.956 0.058-1.34 0.352l-1.252 0.96-1.898 1.417-1.358-0.541c2.421-1.086 4.114-3.508 4.114-6.32 0-3.823-3.123-6.933-6.961-6.933s-6.961 3.11-6.961 6.933c0 1.386 0.414 2.674 1.12 3.758l-2.764-0.024c-0.002 0-0.003 0-0.005 0-0.009 0-0.015 0.004-0.023 0.005-0.053 0.002-0.105 0.013-0.155 0.031-0.013 0.005-0.026 0.008-0.038 0.013-0.006 0.003-0.013 0.003-0.019 0.006l-3.233 1.596c-0.001 0-0.001 0-0.001 0.001l-1.893 0.911c-0.021 0.009-0.042 0.021-0.063 0.035-0.755 0.502-1.012 1.489-0.598 2.295 0.22 0.429 0.595 0.745 1.056 0.889 0.178 0.055 0.359 0.083 0.539 0.083 0.29 0 0.577-0.071 0.839-0.211l1.388-0.738 2.264-1.169 1.357-0.008-5.442 5.416c-0.001 0.001-0.001 0.001-0.002 0.001l-1.339 1.333c-0.316 0.315-0.49 0.732-0.49 1.178s0.174 0.863 0.49 1.179c0.325 0.323 0.752 0.485 1.179 0.485s0.854-0.162 1.18-0.485l1.314-1.309 1.741-1.3 0.901 0.897-1.762 1.754c-0 0.001-0.001 0.001-0.002 0.001l-1.339 1.333c-0.316 0.315-0.49 0.732-0.49 1.178s0.174 0.863 0.49 1.179c0.325 0.323 0.753 0.485 1.18 0.485s0.855-0.162 1.18-0.485l3.482-3.467c0.001-0.001 0.001-0.001 0.001-0.002l1.010-1-0.004-0.004c0.006-0.006 0.015-0.009 0.022-0.015l5.166-5.658 3.471 0.494c0.025 0.004 0.050 0.005 0.075 0.005 0.065 0 0.127-0.015 0.187-0.038 0.018-0.006 0.033-0.015 0.050-0.023 0.019-0.010 0.039-0.015 0.058-0.027l3.213-2.133c0.012-0.008 0.018-0.021 0.029-0.029 0.013-0.010 0.029-0.014 0.041-0.026l1.271-1.191c0.662-0.62 0.753-1.635 0.212-2.362zM2.13 17.77c-0.173 0.093-0.37 0.111-0.558 0.052-0.187-0.058-0.338-0.186-0.427-0.358-0.161-0.314-0.068-0.695 0.214-0.902l1.314-0.632 0.449 1.312-0.992 0.528zM5.628 15.942l-1.548 0.8-0.439-1.283 2.027-1.001-0.040 1.484zM20.727 9.322c0 0.918-0.219 1.785-0.599 2.559l-4.181-1.899c-0.044-0.573-0.341-1.075-0.788-1.388l1.464-4.86c2.378 0.756 4.105 2.974 4.105 5.588zM8.938 9.322c0-3.235 2.644-5.867 5.894-5.867 0.253 0 0.5 0.021 0.745 0.052l-1.432 4.754c-0.019-0.001-0.037-0.006-0.057-0.006-1.033 0-1.873 0.837-1.873 1.867s0.84 1.867 1.873 1.867c0.694 0 1.294-0.383 1.618-0.945l3.862 1.755c-1.075 1.446-2.795 2.39-4.737 2.39-3.25 0-5.894-2.632-5.894-5.867zM14.894 10.122c0 0.441-0.362 0.8-0.806 0.8s-0.806-0.359-0.806-0.8c0-0.441 0.362-0.8 0.806-0.8s0.806 0.359 0.806 0.8zM2.465 25.146c-0.236 0.234-0.619 0.234-0.854 0.001-0.114-0.114-0.176-0.263-0.176-0.423s0.062-0.309 0.176-0.421l0.962-0.958 0.851 0.848-0.959 0.955zM5.679 28.88c-0.236 0.234-0.619 0.235-0.855 0.001-0.114-0.114-0.176-0.263-0.176-0.423s0.062-0.309 0.176-0.421l0.963-0.959 0.852 0.848-0.96 0.955zM9.16 25.411c-0.001 0-0.001 0-0.002 0.001l-1.765 1.76-0.852-0.848 1.763-1.755c0 0 0 0 0-0s0.001-0.001 0.002-0.001c0.040-0.040 0.065-0.088 0.090-0.135 0.007-0.014 0.020-0.026 0.026-0.040 0.017-0.041 0.019-0.085 0.026-0.129 0.003-0.025 0.014-0.047 0.014-0.073 0-0.036-0.013-0.070-0.020-0.106-0.006-0.032-0.006-0.065-0.019-0.095-0.020-0.050-0.055-0.094-0.091-0.138-0.010-0.012-0.014-0.027-0.025-0.038 0 0 0 0-0.001 0s-0.001-0.002-0.001-0.002l-1.607-1.6c-0.017-0.017-0.039-0.024-0.058-0.038-0.028-0.022-0.055-0.042-0.087-0.058-0.030-0.015-0.061-0.024-0.093-0.033-0.034-0.010-0.067-0.017-0.103-0.020-0.033-0.002-0.063 0.001-0.095 0.005-0.036 0.004-0.069 0.009-0.104 0.020-0.034 0.011-0.063 0.027-0.094 0.045-0.020 0.011-0.042 0.015-0.061 0.029l-1.773 1.324-0.901-0.897 2.399-2.386 4.361 4.289-0.928 0.919zM15.979 18.394c-0.015-0.002-0.030 0.004-0.045 0.003-0.039-0.002-0.076 0.001-0.115 0.007-0.030 0.005-0.059 0.011-0.088 0.021-0.034 0.012-0.065 0.028-0.097 0.047-0.030 0.018-0.057 0.037-0.083 0.061-0.013 0.011-0.028 0.017-0.040 0.029l-4.698 5.146-4.328-4.257 2.833-2.818c0.209-0.208 0.21-0.546 0.002-0.755-0.105-0.105-0.243-0.157-0.381-0.156v-0.001l-2.219 0.013 0.028-1.607 3.104 0.027c1.265 1.294 3.029 2.101 4.981 2.101 0.437 0 0.864-0.045 1.279-0.123 0.040 0.032 0.079 0.065 0.13 0.085l2.41 0.96 0.331 1.644-3.003-0.427zM20.020 18.572l-0.313-1.558 1.446-1.080 0.947 1.257-2.080 1.381zM23.774 15.741l-0.838 0.785-0.931-1.236 0.831-0.637c0.155-0.119 0.351-0.168 0.543-0.143 0.193 0.027 0.364 0.128 0.48 0.284 0.217 0.292 0.18 0.699-0.085 0.947z"></path>
<path fill="#212121" style="fill: var(--color1, #212121)" d="M13.602 18.544l-2.143-2.133c-0.207-0.207-0.545-0.207-0.753 0l-2.142 2.133c-0.1 0.101-0.157 0.236-0.157 0.378s0.056 0.278 0.157 0.378l2.142 2.133c0.104 0.103 0.241 0.155 0.377 0.155s0.273-0.052 0.376-0.155l2.143-2.133c0.1-0.1 0.157-0.236 0.157-0.378s-0.057-0.278-0.157-0.378zM11.083 20.303l-1.387-1.381 1.387-1.381 1.387 1.381-1.387 1.381z"></path>
<path fill="#212121" style="fill: var(--color1, #212121)" d="M17.164 5.071l-0.258 1.036c0.071 0.018 1.738 0.452 1.738 2.149h1.067c-0-2.017-1.666-2.965-2.547-3.185z"></path>
<path fill="#212121" style="fill: var(--color1, #212121)" d="M19.711 9.322h-1.067v1.067h1.067v-1.067z"></path>
</symbol>
<symbol id="icon-clock-1" viewBox="0 0 32 32">
<path fill="#212121" style="fill: var(--color1, #212121)" d="M31.297 15.301c-0.002-8.452-6.855-15.303-15.308-15.301s-15.303 6.855-15.301 15.308c0.001 6.658 4.307 12.551 10.649 14.576 0.061 0.019 0.124 0.029 0.187 0.029 0.121-0 0.239-0.032 0.342-0.094 0.135-0.080 0.236-0.207 0.283-0.356l3.865-12.25c1.057-0.005 1.909-0.866 1.903-1.923s-0.866-1.909-1.923-1.903c-0.284 0.001-0.565 0.067-0.82 0.191l-5.106-5.107c-0.253-0.245-0.657-0.238-0.902 0.016-0.239 0.247-0.239 0.639 0 0.886l5.103 5.109c-0.392 0.799-0.168 1.764 0.536 2.309l-3.683 11.673c-7.278-2.681-11.004-10.754-8.323-18.032s10.754-11.004 18.032-8.323 11.004 10.754 8.323 18.032c-1.31 3.556-4.001 6.431-7.462 7.973l-0.398-1.874c-0.073-0.344-0.411-0.565-0.756-0.492-0.109 0.023-0.209 0.074-0.292 0.148l-3.837 3.426c-0.263 0.234-0.287 0.637-0.052 0.9 0.076 0.085 0.174 0.149 0.283 0.184l4.899 1.563c0.335 0.108 0.694-0.077 0.802-0.412 0.034-0.106 0.040-0.219 0.017-0.328l-0.391-1.839c5.664-2.388 9.342-7.942 9.329-14.089zM15.992 14.664c0.352 0 0.638 0.286 0.638 0.638s-0.286 0.638-0.638 0.638c-0.352 0-0.638-0.285-0.638-0.638s0.285-0.638 0.638-0.638zM18.093 29.528l2.184-1.948 0.603 2.84-2.787-0.892z"></path>
<path fill="#2196f3" style="fill: var(--color2, #2196f3)" d="M15.354 3.185v1.275c0 0.352 0.285 0.638 0.638 0.638s0.638-0.285 0.638-0.638v-1.275c0-0.352-0.286-0.638-0.638-0.638s-0.638 0.286-0.638 0.638z"></path>
<path fill="#2196f3" style="fill: var(--color2, #2196f3)" d="M3.876 14.664c-0.352 0-0.638 0.286-0.638 0.638s0.285 0.638 0.638 0.638h1.275c0.352 0 0.638-0.285 0.638-0.638s-0.285-0.638-0.638-0.638h-1.275z"></path>
<path fill="#2196f3" style="fill: var(--color2, #2196f3)" d="M28.108 15.939c0.352 0 0.638-0.285 0.638-0.638s-0.285-0.638-0.638-0.638h-1.275c-0.352 0-0.638 0.286-0.638 0.638s0.286 0.638 0.638 0.638h1.275z"></path>
</symbol>
<symbol id="icon-compait" viewBox="0 0 57 32">
<path fill="#afb1b8" style="fill: var(--color3, #afb1b8)" d="M28.493 14.618c-0.236-0.315-0.349-0.686-0.323-1.061v-1.538c0-0.471 0.107-0.83 0.321-1.075s0.581-0.367 1.102-0.366c0.489 0 0.836 0.104 1.042 0.313 0.224 0.266 0.333 0.592 0.308 0.92v0.361h-0.875v-0.366c0.003-0.12-0.005-0.24-0.025-0.358-0.013-0.081-0.057-0.156-0.125-0.213-0.090-0.061-0.203-0.091-0.317-0.083-0.12-0.008-0.239 0.024-0.333 0.088-0.076 0.063-0.127 0.145-0.145 0.235-0.025 0.126-0.037 0.253-0.034 0.38v1.866c-0.014 0.18 0.025 0.36 0.112 0.524 0.044 0.055 0.104 0.099 0.175 0.127s0.149 0.038 0.226 0.029c0.112 0.008 0.223-0.022 0.31-0.084 0.071-0.061 0.117-0.141 0.13-0.227 0.020-0.124 0.030-0.249 0.027-0.374v-0.379h0.875v0.346c0.025 0.342-0.082 0.682-0.303 0.967-0.201 0.228-0.544 0.343-1.047 0.343s-0.884-0.122-1.1-0.375z"></path>
<path fill="#afb1b8" style="fill: var(--color3, #afb1b8)" d="M32.137 14.633c-0.221-0.239-0.332-0.588-0.332-1.050v-1.617c0-0.457 0.11-0.802 0.332-1.037s0.591-0.351 1.109-0.35c0.515 0 0.882 0.117 1.103 0.35 0.221 0.235 0.333 0.58 0.333 1.037v1.617c0 0.457-0.112 0.807-0.337 1.048s-0.591 0.361-1.1 0.361c-0.509 0-0.886-0.122-1.109-0.36zM33.654 14.245c0.079-0.15 0.115-0.314 0.105-0.479v-1.98c0.010-0.161-0.025-0.322-0.103-0.469-0.044-0.057-0.106-0.101-0.179-0.129s-0.152-0.037-0.231-0.027c-0.079-0.009-0.159 0-0.231 0.028s-0.135 0.072-0.18 0.129c-0.080 0.146-0.116 0.308-0.105 0.469v1.99c-0.011 0.165 0.025 0.329 0.105 0.479 0.051 0.050 0.114 0.091 0.185 0.119s0.147 0.042 0.225 0.042c0.078 0 0.154-0.014 0.225-0.042s0.134-0.068 0.185-0.119v-0.009z"></path>
<path fill="#afb1b8" style="fill: var(--color3, #afb1b8)" d="M35.735 10.626h0.942l0.708 2.984 0.725-2.984h0.917l0.092 4.308h-0.678l-0.072-2.994-0.699 2.994h-0.544l-0.725-3.005-0.067 3.005h-0.685l0.085-4.308z"></path>
<path fill="#afb1b8" style="fill: var(--color3, #afb1b8)" d="M40.176 10.626h1.468c0.846 0 1.268 0.408 1.268 1.223 0 0.781-0.445 1.171-1.335 1.17h-0.5v1.915h-0.906l0.005-4.308zM41.43 12.467c0.090 0.010 0.18 0.003 0.266-0.021s0.165-0.063 0.232-0.115c0.104-0.146 0.15-0.316 0.13-0.486 0.005-0.131-0.010-0.263-0.044-0.391-0.013-0.043-0.036-0.083-0.067-0.118s-0.070-0.065-0.114-0.087c-0.126-0.052-0.265-0.076-0.404-0.069h-0.352v1.287h0.352z"></path>
<path fill="#afb1b8" style="fill: var(--color3, #afb1b8)" d="M44.218 10.626h0.973l0.998 4.308h-0.844l-0.197-0.993h-0.868l-0.203 0.993h-0.857l0.998-4.308zM45.050 13.441l-0.339-1.808-0.339 1.808h0.678z"></path>
<path fill="#afb1b8" style="fill: var(--color3, #afb1b8)" d="M46.996 10.626h0.634l1.214 2.457v-2.457h0.752v4.308h-0.603l-1.221-2.565v2.565h-0.777l0.002-4.308z"></path>
<path fill="#afb1b8" style="fill: var(--color3, #afb1b8)" d="M51.357 13.291l-1.009-2.659h0.85l0.616 1.708 0.578-1.708h0.832l-0.997 2.659v1.642h-0.87v-1.642z"></path>
<path fill="#afb1b8" style="fill: var(--color3, #afb1b8)" d="M29.892 16.817v0.225h-0.739v1.75h-0.31v-1.75h-0.743v-0.225h1.792z"></path>
<path fill="#afb1b8" style="fill: var(--color3, #afb1b8)" d="M32.209 18.793h-0.239c-0.024 0.001-0.048-0.005-0.067-0.019-0.018-0.011-0.032-0.027-0.040-0.045l-0.214-0.469h-1.026l-0.214 0.469c-0.006 0.020-0.017 0.038-0.033 0.053-0.019 0.013-0.043 0.020-0.067 0.019h-0.239l0.906-1.976h0.315l0.917 1.968zM30.709 18.059h0.855l-0.362-0.804c-0.027-0.061-0.049-0.123-0.067-0.186-0.013 0.038-0.024 0.073-0.034 0.105l-0.033 0.083-0.359 0.802z"></path>
<path fill="#afb1b8" style="fill: var(--color3, #afb1b8)" d="M33.771 18.599c0.057 0.003 0.114 0.003 0.17 0 0.049-0.004 0.097-0.012 0.145-0.023 0.044-0.009 0.088-0.021 0.13-0.036 0.040-0.014 0.080-0.031 0.121-0.048v-0.444h-0.362c-0.009 0-0.018-0.001-0.026-0.003s-0.016-0.007-0.023-0.012c-0.006-0.004-0.011-0.010-0.014-0.016s-0.005-0.013-0.004-0.020v-0.152h0.703v0.757c-0.057 0.035-0.118 0.067-0.181 0.094-0.065 0.028-0.132 0.050-0.201 0.067-0.074 0.019-0.15 0.032-0.227 0.041-0.088 0.008-0.176 0.013-0.264 0.012-0.156 0.001-0.311-0.024-0.457-0.073-0.136-0.047-0.259-0.117-0.362-0.206-0.101-0.090-0.18-0.196-0.234-0.313-0.057-0.131-0.085-0.27-0.083-0.41-0.002-0.141 0.026-0.281 0.082-0.413 0.052-0.117 0.132-0.224 0.234-0.313 0.103-0.089 0.227-0.159 0.362-0.205 0.155-0.050 0.32-0.075 0.486-0.074 0.084-0 0.169 0.006 0.252 0.017 0.074 0.010 0.146 0.027 0.216 0.050 0.063 0.021 0.124 0.047 0.181 0.078 0.056 0.031 0.108 0.065 0.158 0.103l-0.087 0.122c-0.007 0.011-0.017 0.021-0.029 0.027s-0.027 0.010-0.041 0.010c-0.020-0.001-0.040-0.006-0.056-0.016-0.027-0.013-0.056-0.028-0.089-0.047-0.038-0.021-0.079-0.039-0.121-0.053-0.054-0.019-0.11-0.033-0.167-0.044-0.076-0.012-0.153-0.018-0.23-0.017-0.12-0.001-0.238 0.017-0.35 0.055-0.101 0.035-0.192 0.088-0.266 0.156-0.075 0.071-0.132 0.155-0.169 0.246-0.081 0.214-0.081 0.445 0 0.659 0.040 0.093 0.101 0.178 0.181 0.249 0.074 0.068 0.164 0.121 0.265 0.156 0.115 0.034 0.237 0.047 0.359 0.039z"></path>
<path fill="#afb1b8" style="fill: var(--color3, #afb1b8)" d="M36.659 18.567h0.989v0.225h-1.292v-1.976h0.31l-0.007 1.75z"></path>
<path fill="#afb1b8" style="fill: var(--color3, #afb1b8)" d="M38.678 18.792h-0.31v-1.976h0.31v1.976z"></path>
<path fill="#afb1b8" style="fill: var(--color3, #afb1b8)" d="M39.83 16.826c0.018 0.009 0.034 0.021 0.047 0.036l1.324 1.489c-0.002-0.023-0.002-0.047 0-0.070 0-0.022 0-0.044 0-0.064v-1.408h0.27v1.984h-0.156c-0.023 0.002-0.046-0.002-0.067-0.011-0.019-0.010-0.035-0.023-0.049-0.038l-1.323-1.488c0 0.023 0 0.045 0 0.067s0 0.042 0 0.061v1.408h-0.259v-1.976h0.161c0.017 0 0.035 0.003 0.051 0.009z"></path>
<path fill="#afb1b8" style="fill: var(--color3, #afb1b8)" d="M43.753 16.817v0.217h-1.098v0.652h0.89v0.21h-0.89v0.674h1.098v0.217h-1.417v-1.971h1.417z"></path>
<path fill="#afb1b8" style="fill: var(--color3, #afb1b8)" d="M11.286 4.616l13.757 3.372v11.818l-13.757-3.371v-11.819zM10.404 3.609v13.401l15.52 3.806v-13.399l-15.52-3.807z"></path>
<path fill="#afb1b8" style="fill: var(--color3, #afb1b8)" d="M18.722 27.036l-15.522-3.809v-13.399l15.522 3.807v13.401z"></path>
<path fill="#afb1b8" style="fill: var(--color3, #afb1b8)" d="M10.661 4.465l13.578 3.33-5.774 4.987-13.58-3.332 5.776-4.985zM10.404 3.609l-7.204 6.219 15.522 3.807 7.202-6.219-15.52-3.807z"></path>
<path fill="#afb1b8" style="fill: var(--color3, #afb1b8)" d="M19.595 26.282l6.329-5.465-6.329-1.553v7.018z"></path>
</symbol>
<symbol id="icon-diagram-1" viewBox="0 0 32 32">
<path fill="#2196f3" style="fill: var(--color2, #2196f3)" d="M14.926 14.965h1.066v4.798h-1.066v-4.797z"></path>
<path fill="#2196f3" style="fill: var(--color2, #2196f3)" d="M19.19 17.097h1.066v2.665h-1.066v-2.665z"></path>
<path fill="#2196f3" style="fill: var(--color2, #2196f3)" d="M10.661 18.696h1.066v1.066h-1.066v-1.066z"></path>
<path fill="#2196f3" style="fill: var(--color2, #2196f3)" d="M7.463 18.163h1.066v1.599h-1.066v-1.599z"></path>
<path fill="#212121" style="fill: var(--color1, #212121)" d="M1.599 28.291h25.587c0.883 0 1.599-0.716 1.599-1.599v-2.132c0-0.883-0.716-1.599-1.599-1.599h-0.533v-13.293l3.028-2.868c0.703 0.346 1.553 0.136 2.013-0.499s0.396-1.508-0.152-2.068-1.42-0.644-2.065-0.198c-0.644 0.446-0.873 1.292-0.542 2.002l-2.281 2.163v-1.23c0-0.883-0.716-1.599-1.599-1.599h-21.322c-0.883 0-1.599 0.716-1.599 1.599v15.992h-0.533c-0.883 0-1.599 0.716-1.599 1.599v2.132c0 0.883 0.716 1.599 1.599 1.599zM30.384 4.837c0.294 0 0.533 0.239 0.533 0.533s-0.239 0.533-0.533 0.533c-0.294 0-0.533-0.239-0.533-0.533s0.239-0.533 0.533-0.533zM3.198 6.969c0-0.294 0.239-0.533 0.533-0.533h21.322c0.294 0 0.533 0.239 0.533 0.533v2.239l-1.066 1.013v-2.186c0-0.294-0.239-0.533-0.533-0.533h-19.19c-0.294 0-0.533 0.239-0.533 0.533v13.326c0 0.294 0.239 0.533 0.533 0.533h19.19c0.294 0 0.533-0.239 0.533-0.533v-9.674l1.066-1.010v12.284h-22.388v-15.992zM7.996 13.899c-0.721-0.002-1.354 0.478-1.546 1.174s0.105 1.433 0.725 1.801c0.62 0.368 1.41 0.276 1.928-0.226l1.853 0.93c0.215 0.108 0.476 0.057 0.636-0.123l3.939-4.431 3.872 2.901c0.208 0.156 0.498 0.139 0.686-0.039l3.365-3.188v8.131h-18.124v-12.26h18.124v2.66l-3.771 3.572-3.904-2.927c-0.222-0.166-0.534-0.135-0.718 0.072l-3.993 4.493-1.493-0.746c0.011-0.064 0.018-0.129 0.020-0.193 0-0.883-0.716-1.599-1.599-1.599zM8.529 15.498c0 0.294-0.239 0.533-0.533 0.533s-0.533-0.239-0.533-0.533c0-0.294 0.239-0.533 0.533-0.533s0.533 0.239 0.533 0.533zM11.727 24.027h5.331v0.533c0 0.294-0.239 0.533-0.533 0.533h-4.264c-0.294 0-0.533-0.239-0.533-0.533v-0.533zM1.066 24.56c0-0.294 0.239-0.533 0.533-0.533h9.062v0.533c0 0.883 0.716 1.599 1.599 1.599h4.264c0.883 0 1.599-0.716 1.599-1.599v-0.533h9.062c0.294 0 0.533 0.239 0.533 0.533v2.132c0 0.294-0.239 0.533-0.533 0.533h-25.587c-0.294 0-0.533-0.239-0.533-0.533v-2.132z"></path>
</symbol>
<symbol id="icon-facebook-1" viewBox="0 0 32 32">
<path fill="#afb1b8" style="fill: var(--color3, #afb1b8)" d="M21.329 5.313h2.921v-5.088c-0.504-0.069-2.237-0.225-4.256-0.225-4.212 0-7.097 2.649-7.097 7.519v4.481h-4.648v5.688h4.648v14.312h5.699v-14.311h4.46l0.708-5.688h-5.169v-3.919c0.001-1.644 0.444-2.769 2.735-2.769z"></path>
</symbol>
<symbol id="icon-group-1" viewBox="0 0 25 32">
<path fill="#afb1b8" style="fill: var(--color3, #afb1b8)" d="M10.531 1.806h-0.084c-0.129-0.008-0.258-0.011-0.388-0.014v0h-0.28c-0.244 0-0.494 0.006-0.741 0.019-0.019-0.001-0.037-0.001-0.056 0-2.243 0.127-4.44 0.688-6.471 1.651l-0.266 0.128v13.625l0.623-0.211c0.546-0.188 1.129-0.357 1.731-0.513 1.629-0.418 3.301-0.64 4.982-0.662v1.79c-0.223 0.002-0.439 0.008-0.655 0.019h-0.051c-1.294 0.071-2.577 0.268-3.833 0.588-1.59 0.398-3.124 0.996-4.566 1.779v-17.475c1.497-0.873 3.11-1.529 4.79-1.948 1.475-0.381 2.992-0.576 4.515-0.582h0.263c0.314 0.008 0.621 0.022 0.909 0.044 0.759 0.053 1.511 0.173 2.249 0.358v1.762c-0.717-0.167-1.445-0.277-2.179-0.329-0.015-0.001-0.030-0.003-0.045-0.004-0.152-0.013-0.304-0.026-0.446-0.026zM13.633 3.607c0.391 0.030 0.796 0.044 1.205 0.044 1.601-0.006 3.195-0.21 4.747-0.609 1.589-0.4 3.123-0.998 4.564-1.781v17.163c-1.498 0.873-3.111 1.529-4.792 1.948-1.475 0.379-2.992 0.574-4.515 0.581-1.154 0.009-2.304-0.126-3.425-0.404v-17.275c0.265 0.061 0.537 0.117 0.814 0.164 0.455 0.077 0.934 0.133 1.401 0.167zM22.367 3.74l-0.623 0.21c-0.573 0.192-1.15 0.365-1.731 0.518-1.691 0.434-3.428 0.657-5.173 0.663-0.406 0-0.78-0.011-1.141-0.034l-0.497-0.033v14.017l0.427 0.038c0.395 0.034 0.803 0.052 1.214 0.052 1.374-0.006 2.743-0.183 4.074-0.527 1.096-0.275 2.162-0.658 3.184-1.144l0.266-0.128v-13.63z"></path>
<path fill="#afb1b8" style="fill: var(--color3, #afb1b8)" d="M1.684 25.977c-0.090-0.093-0.197-0.166-0.317-0.214s-0.247-0.071-0.376-0.066c-0.137-0.002-0.273 0.024-0.4 0.075-0.117 0.046-0.222 0.116-0.311 0.205s-0.156 0.196-0.201 0.313c-0.049 0.123-0.073 0.254-0.072 0.387v2.335c-0.006 0.165 0.026 0.328 0.092 0.479 0.055 0.12 0.135 0.226 0.233 0.313 0.093 0.079 0.203 0.135 0.321 0.166 0.114 0.032 0.231 0.048 0.349 0.049 0.13 0.001 0.259-0.027 0.377-0.081 0.117-0.051 0.222-0.124 0.311-0.216 0.087-0.091 0.156-0.197 0.204-0.313 0.050-0.118 0.075-0.244 0.075-0.372v-0.261h-0.61v0.208c0.002 0.071-0.010 0.142-0.036 0.208-0.020 0.050-0.050 0.095-0.089 0.131-0.038 0.031-0.081 0.053-0.128 0.067-0.041 0.014-0.084 0.021-0.128 0.022-0.054 0.006-0.11-0.002-0.16-0.024s-0.094-0.057-0.126-0.101c-0.058-0.094-0.086-0.203-0.081-0.313v-2.177c-0.004-0.121 0.022-0.241 0.075-0.349 0.032-0.049 0.077-0.089 0.129-0.114s0.112-0.034 0.17-0.027c0.053-0.002 0.105 0.009 0.152 0.032s0.089 0.057 0.12 0.099c0.068 0.090 0.104 0.2 0.101 0.313v0.202h0.604v-0.238c0.001-0.14-0.024-0.278-0.075-0.408-0.045-0.122-0.114-0.234-0.204-0.329z"></path>
<path fill="#afb1b8" style="fill: var(--color3, #afb1b8)" d="M5.31 25.95c-0.195-0.164-0.44-0.255-0.694-0.257-0.124 0-0.248 0.023-0.364 0.066-0.119 0.042-0.228 0.107-0.322 0.191-0.101 0.091-0.182 0.202-0.237 0.327-0.061 0.143-0.092 0.297-0.089 0.452v2.239c-0.004 0.158 0.026 0.314 0.089 0.459 0.055 0.12 0.136 0.227 0.237 0.313 0.093 0.087 0.203 0.154 0.322 0.197 0.117 0.043 0.24 0.065 0.364 0.066s0.248-0.023 0.364-0.066c0.121-0.044 0.233-0.111 0.33-0.197 0.097-0.087 0.176-0.194 0.23-0.313 0.063-0.145 0.093-0.301 0.089-0.459v-2.239c0.003-0.155-0.027-0.31-0.089-0.452-0.054-0.123-0.133-0.235-0.23-0.327zM5.025 28.969c0.005 0.060-0.003 0.12-0.024 0.176s-0.054 0.107-0.097 0.148c-0.081 0.068-0.182 0.105-0.287 0.105s-0.207-0.037-0.287-0.105c-0.043-0.041-0.076-0.092-0.097-0.148s-0.029-0.116-0.024-0.176v-2.239c-0.005-0.060 0.003-0.12 0.024-0.176s0.054-0.107 0.097-0.148c0.081-0.068 0.182-0.105 0.287-0.105s0.207 0.037 0.287 0.105c0.043 0.041 0.076 0.092 0.097 0.148s0.029 0.116 0.024 0.176v2.239z"></path>
<path fill="#afb1b8" style="fill: var(--color3, #afb1b8)" d="M10.072 29.969v-4.239h-0.587l-0.771 2.244h-0.011l-0.777-2.244h-0.581v4.239h0.606v-2.579h0.011l0.593 1.823h0.302l0.598-1.823h0.011v2.579h0.606z"></path>
<path fill="#afb1b8" style="fill: var(--color3, #afb1b8)" d="M13.513 26.027c-0.093-0.105-0.211-0.184-0.343-0.232-0.142-0.046-0.29-0.068-0.439-0.066h-0.9v4.239h0.604v-1.656h0.311c0.188 0.009 0.376-0.031 0.545-0.116 0.137-0.076 0.252-0.188 0.332-0.324 0.070-0.113 0.117-0.238 0.139-0.369 0.024-0.16 0.035-0.321 0.033-0.482 0.006-0.204-0.014-0.407-0.059-0.606-0.040-0.147-0.117-0.281-0.223-0.39zM13.201 27.319c-0.003 0.077-0.022 0.152-0.056 0.221-0.035 0.065-0.089 0.117-0.156 0.149-0.089 0.040-0.187 0.058-0.285 0.053h-0.275v-1.441h0.311c0.094-0.005 0.187 0.014 0.272 0.053 0.062 0.036 0.112 0.091 0.142 0.157 0.033 0.074 0.051 0.155 0.053 0.236 0 0.089 0 0.183 0 0.282s0.006 0.2 0 0.291h-0.006z"></path>
<path fill="#afb1b8" style="fill: var(--color3, #afb1b8)" d="M16.374 25.73h-0.495l-0.934 4.239h0.604l0.177-0.911h0.823l0.177 0.911h0.604l-0.957-4.239zM15.817 28.481l0.297-1.537h0.011l0.296 1.537h-0.604z"></path>
<path fill="#afb1b8" style="fill: var(--color3, #afb1b8)" d="M20.277 28.284h-0.011l-0.912-2.554h-0.581v4.239h0.604v-2.549h0.012l0.923 2.549h0.568v-4.239h-0.604v2.554z"></path>
<path fill="#afb1b8" style="fill: var(--color3, #afb1b8)" d="M23.968 25.73l-0.486 1.685h-0.012l-0.486-1.685h-0.64l0.83 2.447v1.792h0.604v-1.792l0.83-2.447h-0.64z"></path>
<path fill="#afb1b8" style="fill: var(--color3, #afb1b8)" d="M0 31.166h0.291v0.817h0.198v-0.817h0.29v-0.167h-0.778v0.167z"></path>
<path fill="#afb1b8" style="fill: var(--color3, #afb1b8)" d="M2.447 30.998l-0.381 0.984h0.21l0.081-0.224h0.392l0.084 0.224h0.215l-0.391-0.984h-0.21zM2.416 31.593l0.134-0.365 0.134 0.365h-0.268z"></path>
<path fill="#afb1b8" style="fill: var(--color3, #afb1b8)" d="M4.866 31.62h0.227v0.127c-0.066 0.053-0.149 0.082-0.234 0.083-0.040 0.002-0.079-0.005-0.116-0.021s-0.068-0.041-0.093-0.072c-0.052-0.075-0.078-0.165-0.073-0.257 0-0.219 0.095-0.329 0.283-0.329 0.050-0.005 0.099 0.008 0.14 0.037s0.070 0.071 0.082 0.12l0.195-0.038c-0.042-0.192-0.181-0.289-0.417-0.289-0.127-0.003-0.25 0.042-0.344 0.127-0.050 0.049-0.088 0.108-0.112 0.174s-0.034 0.135-0.029 0.205c-0.006 0.135 0.039 0.267 0.126 0.369 0.048 0.050 0.107 0.088 0.171 0.113s0.134 0.035 0.203 0.031c0.154 0.004 0.304-0.052 0.417-0.157v-0.388h-0.427v0.166z"></path>
<path fill="#afb1b8" style="fill: var(--color3, #afb1b8)" d="M7.337 30.998h-0.199v0.984h0.69v-0.167h-0.49v-0.817z"></path>
<path fill="#afb1b8" style="fill: var(--color3, #afb1b8)" d="M9.426 30.998h-0.199v0.984h0.199v-0.984z"></path>
<path fill="#afb1b8" style="fill: var(--color3, #afb1b8)" d="M11.469 31.656l-0.403-0.657h-0.193v0.984h0.185v-0.643l0.395 0.643h0.198v-0.984h-0.182v0.657z"></path>
<path fill="#afb1b8" style="fill: var(--color3, #afb1b8)" d="M13.315 31.549h0.49v-0.167h-0.49v-0.216h0.528v-0.167h-0.727v0.984h0.747v-0.167h-0.548v-0.266z"></path>
<path fill="#afb1b8" style="fill: var(--color3, #afb1b8)" d="M17.792 31.387h-0.388v-0.388h-0.198v0.984h0.198v-0.43h0.388v0.43h0.198v-0.984h-0.198v0.388z"></path>
<path fill="#afb1b8" style="fill: var(--color3, #afb1b8)" d="M19.649 31.549h0.492v-0.167h-0.492v-0.216h0.529v-0.167h-0.727v0.984h0.746v-0.167h-0.548v-0.266z"></path>
<path fill="#afb1b8" style="fill: var(--color3, #afb1b8)" d="M22.168 31.549c0.171-0.027 0.258-0.117 0.258-0.274 0.005-0.042-0.001-0.084-0.018-0.123s-0.044-0.072-0.078-0.096c-0.089-0.045-0.189-0.065-0.288-0.058h-0.417v0.984h0.198v-0.412h0.039c0.042-0.003 0.084 0.005 0.123 0.022 0.029 0.018 0.053 0.043 0.070 0.072l0.215 0.313h0.237l-0.12-0.192c-0.053-0.095-0.128-0.176-0.218-0.236zM21.969 31.413h-0.146v-0.247h0.156c0.068-0.005 0.136 0.002 0.201 0.023 0.014 0.013 0.026 0.029 0.033 0.046s0.011 0.037 0.010 0.056c-0.001 0.019-0.006 0.038-0.015 0.055s-0.022 0.032-0.037 0.043c-0.065 0.020-0.133 0.028-0.201 0.023z"></path>
<path fill="#afb1b8" style="fill: var(--color3, #afb1b8)" d="M24.067 31.549h0.49v-0.167h-0.49v-0.216h0.529v-0.167h-0.729v0.984h0.747v-0.167h-0.548v-0.266z"></path>
</symbol>
<symbol id="icon-group-2" viewBox="0 0 65 32">
<path fill="#afb1b8" style="fill: var(--color3, #afb1b8); stroke: var(--color4, #000)" stroke="#000" stroke-linejoin="miter" stroke-linecap="butt" stroke-miterlimit="4" stroke-width="0.7619" d="M10.014 10.364h0.002c1.66 0 2.927 1.187 2.927 2.559v0.002c0 1.372-1.267 2.559-2.927 2.559h-0.002c-1.66 0-2.927-1.187-2.927-2.559v-0.002c0-1.372 1.267-2.559 2.927-2.559z"></path>
<path fill="#afb1b8" style="fill: var(--color3, #afb1b8); stroke: var(--color4, #000)" stroke="#000" stroke-linejoin="miter" stroke-linecap="butt" stroke-miterlimit="4" stroke-width="0.7619" d="M16.053 21c-0.149 0.021-0.279 0.038-0.39 0.052v-12.008c0.005-2.14 0.963-4.201 2.683-5.729 1.721-1.529 4.063-2.397 6.514-2.401 2.45 0.005 4.791 0.873 6.511 2.402 1.719 1.528 2.677 3.588 2.682 5.727 0 0 0 0 0 0.001v0.001c0 0 0 0 0 0-0.001 2.504-1.134 4.503-2.871 6.109-1.745 1.613-4.087 2.816-6.458 3.703-2.367 0.886-4.738 1.447-6.521 1.787-0.89 0.17-1.632 0.284-2.15 0.356z"></path>
<path fill="#afb1b8" style="fill: var(--color3, #afb1b8); stroke: var(--color4, #000)" stroke="#000" stroke-linejoin="miter" stroke-linecap="butt" stroke-miterlimit="4" stroke-width="0.7619" d="M8.788 25.561c-0-0.392-0.132-0.772-0.37-1.090s-0.573-0.559-0.956-0.7c-0.383-0.141-0.802-0.177-1.206-0.106s-0.78 0.249-1.080 0.515c-0.3 0.267-0.51 0.612-0.596 0.995s-0.041 0.782 0.126 1.14c0.167 0.358 0.445 0.656 0.793 0.862 0.239 0.142 0.506 0.238 0.783 0.284v0.037h0.381c0.274 0 0.546-0.048 0.801-0.142s0.489-0.233 0.688-0.411c0.199-0.178 0.36-0.391 0.47-0.629s0.167-0.495 0.166-0.756zM8.788 25.561c0-0 0-0.001 0-0.001l-0.381 0.002h0.381c0-0 0-0.001 0-0.001zM12.804 17.358c0.049-0.007 0.096-0.013 0.139-0.019v8.223c0 0 0 0 0 0-0.005 1.453-0.656 2.855-1.829 3.898-1.174 1.044-2.774 1.638-4.452 1.643-1.678-0.005-3.278-0.6-4.453-1.644-1.173-1.043-1.824-2.446-1.828-3.899 0-1.702 0.769-3.064 1.96-4.165 1.198-1.108 2.813-1.939 4.455-2.553 1.639-0.613 3.282-1.002 4.518-1.238 0.617-0.118 1.131-0.197 1.49-0.247z"></path>
<path fill="#afb1b8" style="fill: var(--color3, #afb1b8)" d="M18.842 24.336v3.25h-0.67v-3.25h0.67zM20.137 25.725v0.522h-1.478v-0.522h1.478zM20.293 24.336v0.525h-1.634v-0.525h1.634zM23.351 25.885v0.154c0 0.247-0.033 0.469-0.1 0.665s-0.161 0.364-0.284 0.502c-0.122 0.137-0.268 0.242-0.438 0.315-0.168 0.073-0.355 0.109-0.56 0.109-0.204 0-0.391-0.036-0.56-0.109-0.168-0.073-0.314-0.178-0.438-0.315-0.123-0.138-0.22-0.306-0.288-0.502-0.067-0.196-0.101-0.418-0.101-0.665v-0.154c0-0.249 0.034-0.47 0.101-0.665 0.067-0.196 0.161-0.364 0.283-0.502 0.123-0.138 0.269-0.244 0.438-0.317 0.17-0.073 0.356-0.109 0.56-0.109 0.205 0 0.392 0.036 0.56 0.109 0.17 0.073 0.316 0.179 0.438 0.317 0.123 0.138 0.219 0.306 0.286 0.502 0.068 0.195 0.103 0.417 0.103 0.665zM22.675 26.039v-0.158c0-0.173-0.016-0.324-0.047-0.455s-0.077-0.241-0.138-0.33-0.135-0.156-0.223-0.201c-0.088-0.046-0.188-0.069-0.301-0.069s-0.214 0.023-0.301 0.069c-0.086 0.045-0.16 0.112-0.221 0.201-0.059 0.089-0.105 0.199-0.136 0.33s-0.047 0.283-0.047 0.455v0.158c0 0.171 0.016 0.323 0.047 0.455 0.031 0.131 0.077 0.242 0.138 0.333 0.061 0.089 0.135 0.157 0.223 0.203s0.188 0.069 0.301 0.069c0.113 0 0.213-0.023 0.301-0.069s0.161-0.114 0.221-0.203c0.059-0.091 0.105-0.202 0.136-0.333 0.031-0.132 0.047-0.284 0.047-0.455zM25.525 26.736c0-0.058-0.009-0.11-0.027-0.156-0.016-0.048-0.048-0.091-0.094-0.129-0.046-0.040-0.111-0.080-0.194-0.118s-0.191-0.079-0.324-0.121c-0.147-0.048-0.287-0.101-0.42-0.161-0.131-0.059-0.247-0.129-0.348-0.208-0.1-0.080-0.178-0.173-0.237-0.279-0.057-0.106-0.085-0.228-0.085-0.368 0-0.135 0.030-0.258 0.089-0.368 0.059-0.112 0.143-0.207 0.25-0.286 0.107-0.080 0.234-0.142 0.379-0.185 0.147-0.043 0.309-0.065 0.484-0.065 0.24 0 0.449 0.043 0.627 0.129s0.317 0.205 0.415 0.355c0.1 0.15 0.15 0.322 0.15 0.516h-0.665c0-0.095-0.020-0.179-0.060-0.25-0.039-0.073-0.098-0.13-0.179-0.172-0.079-0.042-0.179-0.063-0.299-0.063-0.116 0-0.213 0.018-0.29 0.054-0.077 0.034-0.135 0.081-0.174 0.141-0.039 0.058-0.058 0.123-0.058 0.196 0 0.055 0.013 0.105 0.040 0.15 0.028 0.045 0.070 0.086 0.125 0.125s0.123 0.075 0.203 0.109c0.080 0.034 0.173 0.068 0.279 0.101 0.177 0.054 0.333 0.114 0.466 0.181 0.135 0.067 0.249 0.142 0.339 0.225s0.159 0.178 0.205 0.284c0.046 0.106 0.069 0.225 0.069 0.359 0 0.141-0.028 0.268-0.083 0.38s-0.135 0.206-0.239 0.284c-0.104 0.077-0.228 0.136-0.373 0.176s-0.306 0.060-0.484 0.060c-0.161 0-0.319-0.021-0.475-0.062-0.156-0.043-0.298-0.108-0.426-0.194-0.126-0.086-0.228-0.196-0.304-0.33s-0.114-0.292-0.114-0.475h0.672c0 0.101 0.016 0.187 0.047 0.257s0.075 0.126 0.132 0.17c0.058 0.043 0.127 0.074 0.205 0.094 0.080 0.019 0.168 0.029 0.263 0.029 0.116 0 0.211-0.016 0.286-0.049 0.076-0.033 0.132-0.078 0.167-0.136 0.037-0.058 0.056-0.123 0.056-0.196zM28.103 24.336v3.25h-0.667v-3.25h0.667zM29.103 24.336v0.525h-2.652v-0.525h2.652zM31.666 27.064v0.522h-1.73v-0.522h1.73zM30.154 24.336v3.25h-0.67v-3.25h0.67zM31.44 25.66v0.509h-1.504v-0.509h1.504zM31.663 24.336v0.525h-1.728v-0.525h1.728zM32.056 24.336h1.212c0.249 0 0.462 0.037 0.641 0.112 0.18 0.074 0.318 0.185 0.415 0.33s0.145 0.325 0.145 0.538c0 0.174-0.030 0.324-0.089 0.449-0.058 0.123-0.141 0.227-0.248 0.31-0.106 0.082-0.23 0.147-0.373 0.196l-0.212 0.112h-1.054l-0.004-0.522h0.783c0.118 0 0.215-0.021 0.292-0.063s0.135-0.1 0.174-0.174c0.040-0.074 0.060-0.161 0.060-0.259 0-0.104-0.019-0.194-0.058-0.27s-0.097-0.134-0.176-0.174c-0.079-0.040-0.178-0.060-0.297-0.060h-0.542v2.725h-0.67v-3.25zM33.873 27.586l-0.741-1.449 0.708-0.004 0.75 1.422v0.031h-0.717zM37.389 26.428h-0.828v-0.522h0.828c0.128 0 0.232-0.021 0.313-0.063 0.080-0.043 0.139-0.103 0.176-0.179s0.056-0.161 0.056-0.257c0-0.097-0.019-0.187-0.056-0.27s-0.096-0.15-0.176-0.201-0.185-0.076-0.313-0.076h-0.596v2.725h-0.67v-3.25h1.266c0.254 0 0.473 0.046 0.654 0.138 0.183 0.091 0.323 0.217 0.42 0.377s0.145 0.345 0.145 0.551c0 0.21-0.048 0.391-0.145 0.545s-0.237 0.272-0.42 0.355c-0.181 0.083-0.4 0.125-0.654 0.125zM41.251 27.064v0.522h-1.73v-0.522h1.73zM39.739 24.336v3.25h-0.67v-3.25h0.67zM41.025 25.66v0.509h-1.504v-0.509h1.504zM41.248 24.336v0.525h-1.728v-0.525h1.728zM43.139 24.336v3.25h-0.667v-3.25h0.667zM44.139 24.336v0.525h-2.652v-0.525h2.652zM46.701 27.064v0.522h-1.73v-0.522h1.73zM45.19 24.336v3.25h-0.67v-3.25h0.67zM46.476 25.66v0.509h-1.504v-0.509h1.504zM46.699 24.336v0.525h-1.728v-0.525h1.728zM47.092 24.336h1.212c0.249 0 0.462 0.037 0.641 0.112 0.18 0.074 0.318 0.185 0.415 0.33s0.145 0.325 0.145 0.538c0 0.174-0.030 0.324-0.089 0.449-0.058 0.123-0.141 0.227-0.248 0.31-0.106 0.082-0.23 0.147-0.373 0.196l-0.212 0.112h-1.054l-0.005-0.522h0.784c0.118 0 0.215-0.021 0.292-0.063s0.135-0.1 0.174-0.174c0.040-0.074 0.060-0.161 0.060-0.259 0-0.104-0.019-0.194-0.058-0.27s-0.097-0.134-0.176-0.174c-0.079-0.040-0.178-0.060-0.297-0.060h-0.542v2.725h-0.67v-3.25zM48.909 27.586l-0.741-1.449 0.708-0.004 0.75 1.422v0.031h-0.717zM51.713 26.736c0-0.058-0.009-0.11-0.027-0.156-0.016-0.048-0.048-0.091-0.094-0.129-0.046-0.040-0.111-0.080-0.194-0.118s-0.191-0.079-0.324-0.121c-0.147-0.048-0.287-0.101-0.42-0.161-0.131-0.059-0.247-0.129-0.348-0.208-0.1-0.080-0.178-0.173-0.237-0.279-0.057-0.106-0.085-0.228-0.085-0.368 0-0.135 0.030-0.258 0.089-0.368 0.059-0.112 0.143-0.207 0.25-0.286 0.107-0.080 0.234-0.142 0.379-0.185 0.147-0.043 0.309-0.065 0.484-0.065 0.24 0 0.449 0.043 0.627 0.129s0.317 0.205 0.415 0.355c0.1 0.15 0.15 0.322 0.15 0.516h-0.665c0-0.095-0.020-0.179-0.060-0.25-0.039-0.073-0.098-0.13-0.179-0.172-0.079-0.042-0.179-0.063-0.299-0.063-0.116 0-0.213 0.018-0.29 0.054-0.077 0.034-0.135 0.081-0.174 0.141-0.039 0.058-0.058 0.123-0.058 0.196 0 0.055 0.013 0.105 0.040 0.15 0.028 0.045 0.070 0.086 0.125 0.125s0.123 0.075 0.203 0.109c0.080 0.034 0.173 0.068 0.279 0.101 0.177 0.054 0.333 0.114 0.467 0.181 0.135 0.067 0.249 0.142 0.339 0.225s0.159 0.178 0.205 0.284c0.046 0.106 0.069 0.225 0.069 0.359 0 0.141-0.028 0.268-0.083 0.38s-0.135 0.206-0.239 0.284c-0.104 0.077-0.228 0.136-0.373 0.176s-0.306 0.060-0.484 0.060c-0.161 0-0.319-0.021-0.475-0.062-0.156-0.043-0.298-0.108-0.426-0.194-0.126-0.086-0.228-0.196-0.304-0.33s-0.114-0.292-0.114-0.475h0.672c0 0.101 0.016 0.187 0.047 0.257s0.075 0.126 0.132 0.17c0.058 0.043 0.127 0.074 0.205 0.094 0.080 0.019 0.168 0.029 0.263 0.029 0.116 0 0.211-0.016 0.286-0.049 0.076-0.033 0.132-0.078 0.167-0.136 0.037-0.058 0.056-0.123 0.056-0.196z"></path>
<path fill="#000" style="fill: var(--color4, #000)" d="M18.842 24.336h0.762v-0.762h-0.762v0.762zM18.842 27.586v0.762h0.762v-0.762h-0.762zM18.172 27.586h-0.762v0.762h0.762v-0.762zM18.172 24.336v-0.762h-0.762v0.762h0.762zM20.137 25.725h0.762v-0.762h-0.762v0.762zM20.137 26.247v0.762h0.762v-0.762h-0.762zM18.659 26.247h-0.762v0.762h0.762v-0.762zM18.659 25.725v-0.762h-0.762v0.762h0.762zM20.293 24.336h0.762v-0.762h-0.762v0.762zM20.293 24.861v0.762h0.762v-0.762h-0.762zM18.659 24.861h-0.762v0.762h0.762v-0.762zM18.659 24.336v-0.762h-0.762v0.762h0.762zM18.080 24.336v3.25h1.524v-3.25h-1.524zM18.842 26.824h-0.67v1.524h0.67v-1.524zM18.934 27.586v-3.25h-1.524v3.25h1.524zM18.172 25.098h0.67v-1.524h-0.67v1.524zM19.375 25.725v0.522h1.524v-0.522h-1.524zM20.137 25.485h-1.478v1.524h1.478v-1.524zM19.421 26.247v-0.522h-1.524v0.522h1.524zM18.659 26.486h1.478v-1.524h-1.478v1.524zM19.531 24.336v0.525h1.524v-0.525h-1.524zM20.293 24.099h-1.634v1.524h1.634v-1.524zM19.421 24.861v-0.525h-1.524v0.525h1.524zM18.659 25.098h1.634v-1.524h-1.634v1.524zM22.967 27.207l0.569 0.507 0.003-0.003-0.572-0.504zM22.53 27.521l-0.301-0.7-0.002 0.001 0.303 0.699zM21.409 27.521l-0.303 0.699 0.002 0.001 0.301-0.7zM20.971 27.207l-0.568 0.507 0.003 0.003 0.566-0.51zM20.684 26.705l-0.721 0.246 0.002 0.005 0.719-0.251zM20.684 25.22l0.721 0.248 0.001-0.002-0.721-0.246zM20.967 24.718l-0.568-0.507-0.003 0.003 0.571 0.504zM21.404 24.401l-0.301-0.7-0.002 0.001 0.303 0.699zM22.525 24.401l-0.303 0.699 0.002 0.001 0.301-0.7zM22.963 24.718l-0.572 0.504 0.003 0.003 0.568-0.507zM23.248 25.22l-0.721 0.246 0.002 0.007 0.719-0.253zM22.266 24.894l-0.354 0.674 0.009 0.005 0.345-0.679zM21.663 24.894l0.35 0.677 0.004-0.002-0.354-0.674zM21.442 25.095l-0.629-0.43-0.005 0.007 0.634 0.423zM21.306 26.495l-0.741 0.175 0 0.002 0.741-0.177zM21.445 26.827l-0.632 0.425 0.003 0.005 0.629-0.43zM22.492 26.827l0.634 0.423 0.003-0.005-0.637-0.418zM22.628 26.495l0.741 0.177 0-0.002-0.742-0.175zM22.589 25.885v0.154h1.524v-0.154h-1.524zM22.589 26.039c0 0.179-0.024 0.316-0.060 0.419l1.442 0.492c0.099-0.289 0.141-0.596 0.141-0.911h-1.524zM22.529 26.459c-0.039 0.113-0.086 0.19-0.134 0.244l1.143 1.008c0.196-0.223 0.338-0.481 0.433-0.76l-1.442-0.492zM22.398 26.7c-0.047 0.053-0.102 0.092-0.17 0.122l0.602 1.4c0.271-0.117 0.509-0.287 0.705-0.508l-1.138-1.014zM22.226 26.822c-0.062 0.027-0.144 0.046-0.257 0.046v1.524c0.297 0 0.589-0.053 0.863-0.172l-0.606-1.398zM21.969 26.869c-0.111 0-0.194-0.019-0.259-0.047l-0.602 1.4c0.274 0.118 0.565 0.171 0.861 0.171v-1.524zM21.712 26.822c-0.067-0.029-0.124-0.070-0.175-0.126l-1.131 1.021c0.196 0.217 0.431 0.387 0.7 0.503l0.606-1.398zM21.54 26.699c-0.049-0.055-0.097-0.132-0.137-0.246l-1.439 0.502c0.097 0.28 0.241 0.537 0.439 0.759l1.137-1.015zM21.405 26.459c-0.035-0.104-0.060-0.24-0.060-0.419h-1.524c0 0.315 0.043 0.622 0.141 0.911l1.442-0.492zM21.345 26.039v-0.154h-1.524v0.154h1.524zM21.345 25.885c0-0.181 0.025-0.317 0.059-0.418l-1.441-0.495c-0.099 0.289-0.142 0.597-0.142 0.913h1.524zM21.405 25.466c0.039-0.113 0.086-0.19 0.134-0.244l-1.143-1.008c-0.196 0.223-0.338 0.481-0.433 0.76l1.442 0.492zM21.535 25.225c0.051-0.057 0.107-0.097 0.172-0.125l-0.606-1.398c-0.271 0.117-0.507 0.289-0.703 0.509l1.137 1.015zM21.705 25.101c0.065-0.028 0.148-0.047 0.259-0.047v-1.524c-0.297 0-0.587 0.053-0.861 0.171l0.602 1.4zM21.965 25.053c0.114 0 0.196 0.020 0.257 0.046l0.606-1.398c-0.275-0.119-0.566-0.172-0.863-0.172v1.524zM22.224 25.101c0.066 0.028 0.119 0.067 0.167 0.121l1.143-1.008c-0.197-0.223-0.435-0.396-0.708-0.513l-0.602 1.4zM22.394 25.225c0.048 0.054 0.095 0.129 0.133 0.241l1.442-0.492c-0.096-0.281-0.239-0.541-0.438-0.764l-1.137 1.015zM22.529 25.473c0.035 0.099 0.060 0.233 0.060 0.413h1.524c0-0.318-0.044-0.627-0.146-0.918l-1.438 0.505zM23.436 26.039v-0.158h-1.524v0.158h1.524zM23.436 25.881c0-0.216-0.019-0.43-0.068-0.632l-1.482 0.354c0.014 0.059 0.026 0.15 0.026 0.278h1.524zM23.369 25.249c-0.048-0.2-0.126-0.401-0.25-0.583l-1.258 0.86c-0.003-0.004 0.012 0.015 0.026 0.077l1.482-0.354zM23.118 24.665c-0.126-0.184-0.294-0.342-0.507-0.45l-0.691 1.358c-0.017-0.008-0.031-0.019-0.043-0.029s-0.017-0.018-0.018-0.019l1.258-0.86zM22.62 24.22c-0.212-0.111-0.437-0.157-0.656-0.157v1.524c0.005 0 0 0-0.010-0.002s-0.026-0.008-0.043-0.016l0.709-1.349zM21.965 24.063c-0.219 0-0.444 0.045-0.656 0.157l0.709 1.349c-0.016 0.009-0.031 0.014-0.043 0.016s-0.015 0.002-0.010 0.002v-1.524zM21.313 24.218c-0.21 0.109-0.376 0.266-0.5 0.448l1.258 0.86c-0 0-0.005 0.007-0.016 0.017s-0.025 0.020-0.043 0.029l-0.7-1.353zM20.809 24.673c-0.12 0.181-0.196 0.379-0.243 0.576l1.482 0.354c0.015-0.065 0.030-0.087 0.029-0.085l-1.268-0.845zM20.565 25.249c-0.048 0.202-0.068 0.416-0.068 0.632h1.524c0-0.129 0.012-0.219 0.026-0.278l-1.482-0.354zM20.498 25.881v0.158h1.524v-0.158h-1.524zM20.498 26.039c0 0.216 0.020 0.428 0.067 0.63l1.483-0.35c-0.015-0.063-0.026-0.154-0.026-0.28h-1.524zM20.565 26.672c0.048 0.2 0.125 0.399 0.247 0.581l1.265-0.85c0 0-0.004-0.005-0.009-0.019s-0.013-0.035-0.020-0.066l-1.482 0.354zM20.816 27.257c0.125 0.183 0.29 0.339 0.498 0.448l0.709-1.349c0.014 0.007 0.027 0.016 0.037 0.026s0.014 0.015 0.015 0.016l-1.258 0.86zM21.314 27.705c0.212 0.111 0.437 0.157 0.656 0.157v-1.524c-0.005 0-0.001-0 0.010 0.002s0.026 0.008 0.043 0.016l-0.709 1.349zM21.969 27.861c0.219 0 0.444-0.045 0.656-0.157l-0.709-1.349c0.016-0.009 0.031-0.014 0.043-0.016s0.015-0.002 0.010-0.002v1.524zM22.625 27.705c0.21-0.11 0.376-0.269 0.501-0.455l-1.268-0.845c0.002-0.002 0.007-0.010 0.018-0.021s0.025-0.020 0.040-0.028l0.709 1.349zM23.129 27.245c0.118-0.18 0.193-0.377 0.24-0.574l-1.482-0.354c-0.015 0.065-0.031 0.090-0.032 0.092l1.274 0.836zM23.369 26.67c0.048-0.202 0.067-0.415 0.067-0.63h-1.524c0 0.127-0.012 0.218-0.026 0.28l1.483 0.35zM25.498 26.579l-0.721 0.248 0.005 0.014 0.005 0.014 0.711-0.275zM25.404 26.45l-0.5 0.575 0.005 0.005 0.005 0.005 0.49-0.584zM24.887 26.211l-0.234 0.725 0.006 0.002 0.229-0.727zM24.467 26.050l-0.315 0.694 0.003 0.001 0.312-0.695zM24.119 25.843l-0.478 0.593 0.010 0.008 0.468-0.601zM23.882 25.564l-0.672 0.36 0.004 0.007 0.668-0.367zM23.887 24.827l0.67 0.362 0.002-0.004-0.672-0.359zM24.137 24.542l0.452 0.614 0.006-0.004-0.457-0.61zM24.516 24.356l-0.214-0.731-0.002 0.001 0.216 0.731zM26.043 24.776l-0.638 0.417 0.003 0.004 0.635-0.421zM26.192 25.292v0.762h0.762v-0.762h-0.762zM25.527 25.292h-0.762v0.762h0.762v-0.762zM25.467 25.042l-0.673 0.357 0.004 0.008 0.005 0.008 0.664-0.373zM25.288 24.87l-0.356 0.674 0.005 0.003 0.351-0.676zM24.699 24.861l0.308 0.697 0.006-0.002 0.006-0.003-0.319-0.692zM24.525 25.001l0.634 0.423 0.005-0.007-0.639-0.415zM24.507 25.347l-0.653 0.392 0.005 0.008 0.005 0.008 0.644-0.408zM25.114 25.682l-0.226 0.728 0.005 0.001 0.221-0.729zM25.581 25.863l-0.341 0.681 0.003 0.002 0.338-0.683zM24.541 27.568l-0.203 0.734 0.007 0.002 0.196-0.736zM24.114 27.374l-0.43 0.629 0.003 0.002 0.426-0.632zM23.697 26.568v-0.762h-0.762v0.762h0.762zM24.369 26.568h0.762v-0.762h-0.762v0.762zM24.547 26.995l-0.462 0.606 0.008 0.006 0.455-0.611zM24.753 27.088l-0.181 0.74 0.003 0.001 0.178-0.741zM25.302 27.068l-0.302-0.7-0.005 0.002 0.307 0.697zM25.469 26.932l-0.641-0.411-0.007 0.012 0.649 0.399zM26.287 26.736c0-0.136-0.021-0.284-0.078-0.431l-1.421 0.55c-0.021-0.055-0.025-0.099-0.025-0.119h1.524zM26.219 26.332c-0.070-0.202-0.193-0.355-0.325-0.466l-0.979 1.168c-0.039-0.033-0.1-0.1-0.137-0.207l1.441-0.495zM25.905 25.875c-0.12-0.105-0.254-0.179-0.374-0.235l-0.642 1.382c0.010 0.005 0.018 0.009 0.024 0.012s0.010 0.005 0.011 0.006c0.002 0.001 0 0-0.003-0.002s-0.010-0.007-0.018-0.014l1.001-1.149zM25.531 25.641c-0.124-0.058-0.266-0.109-0.416-0.156l-0.457 1.454c0.115 0.036 0.189 0.065 0.231 0.085l0.642-1.382zM25.121 25.486c-0.122-0.040-0.236-0.083-0.342-0.131l-0.625 1.39c0.16 0.072 0.326 0.135 0.498 0.191l0.469-1.45zM24.782 25.357c-0.083-0.038-0.146-0.077-0.195-0.115l-0.937 1.202c0.154 0.12 0.322 0.219 0.501 0.3l0.631-1.387zM24.597 25.25c-0.027-0.022-0.040-0.039-0.047-0.053l-1.336 0.734c0.109 0.198 0.254 0.367 0.426 0.505l0.956-1.186zM24.554 25.204c0.002 0.005 0.004 0.009 0.005 0.012s0.002 0.005 0.002 0.005c0 0-0.002-0.007-0.002-0.026h-1.524c0 0.244 0.050 0.494 0.175 0.728l1.344-0.719zM24.559 25.196c0-0.012 0.001-0.016 0.001-0.014s-0 0.002-0.001 0.003-0.001 0.003-0.002 0.005l-1.34-0.725c-0.125 0.23-0.181 0.479-0.181 0.731h1.524zM24.559 25.186c0.003-0.006 0.009-0.016 0.029-0.031l-0.903-1.227c-0.194 0.143-0.355 0.323-0.471 0.541l1.345 0.717zM24.594 25.151c0.026-0.019 0.068-0.043 0.139-0.064l-0.432-1.461c-0.221 0.065-0.432 0.165-0.62 0.306l0.914 1.219zM24.73 25.087c0.069-0.020 0.157-0.034 0.27-0.034v-1.524c-0.238 0-0.473 0.029-0.699 0.095l0.428 1.462zM25.001 25.053c0.148 0 0.24 0.026 0.296 0.054l0.663-1.372c-0.301-0.146-0.628-0.205-0.959-0.205v1.524zM25.296 25.107c0.067 0.033 0.094 0.063 0.109 0.086l1.276-0.834c-0.182-0.278-0.432-0.484-0.721-0.624l-0.663 1.372zM25.408 25.197c0.011 0.016 0.023 0.039 0.023 0.094h1.524c0-0.332-0.088-0.652-0.276-0.937l-1.27 0.842zM26.192 24.53h-0.665v1.524h0.665v-1.524zM26.289 25.292c0-0.205-0.044-0.421-0.158-0.624l-1.328 0.747c-0.034-0.060-0.038-0.109-0.038-0.123h1.524zM26.14 24.684c-0.118-0.223-0.297-0.385-0.501-0.491l-0.701 1.353c-0.019-0.010-0.045-0.026-0.073-0.053s-0.052-0.059-0.071-0.094l1.346-0.714zM25.644 24.196c-0.22-0.116-0.452-0.151-0.655-0.151v1.524c0.017 0 0.019 0.002 0.009-0s-0.034-0.008-0.066-0.025l0.712-1.347zM24.989 24.045c-0.189 0-0.403 0.028-0.609 0.124l0.639 1.384c-0.027 0.012-0.046 0.016-0.050 0.017s0.002-0.001 0.021-0.001v-1.524zM24.391 24.164c-0.186 0.082-0.371 0.217-0.505 0.422l1.278 0.83c-0.056 0.087-0.125 0.127-0.157 0.141l-0.616-1.394zM23.891 24.579c-0.126 0.189-0.186 0.403-0.186 0.619h1.524c0 0.032-0.004 0.070-0.017 0.112s-0.031 0.081-0.053 0.114l-1.268-0.845zM23.705 25.198c0 0.185 0.047 0.372 0.149 0.542l1.307-0.784c0.048 0.081 0.068 0.168 0.068 0.242h-1.524zM23.864 25.755c0.094 0.149 0.215 0.259 0.331 0.341l0.876-1.247c0.006 0.004 0.043 0.031 0.081 0.091l-1.287 0.815zM24.194 26.096c0.109 0.077 0.227 0.138 0.343 0.187l0.597-1.402c-0.022-0.009-0.037-0.017-0.048-0.023s-0.016-0.009-0.015-0.009l-0.876 1.247zM24.537 26.283c0.11 0.047 0.228 0.089 0.352 0.127l0.451-1.456c-0.087-0.027-0.155-0.052-0.206-0.074l-0.597 1.402zM24.894 26.411c0.145 0.044 0.259 0.089 0.346 0.133l0.681-1.363c-0.18-0.090-0.377-0.165-0.587-0.229l-0.441 1.459zM25.243 26.546c0.085 0.042 0.134 0.079 0.162 0.104l1.031-1.122c-0.154-0.142-0.331-0.255-0.517-0.347l-0.675 1.366zM25.405 26.65c0.018 0.017 0.022 0.025 0.022 0.027l1.396-0.61c-0.091-0.21-0.225-0.39-0.388-0.54l-1.031 1.122zM25.427 26.677c-0.002-0.005 0.006 0.009 0.006 0.054h1.524c0-0.222-0.039-0.448-0.133-0.664l-1.396 0.61zM25.433 26.731c0 0.021-0.002 0.034-0.003 0.039s-0.002 0.006-0.001 0.004l1.367 0.674c0.113-0.23 0.161-0.474 0.161-0.717h-1.524zM25.429 26.774c-0 0.001-0 0.001-0 0.001s0-0 0-0-0.001 0.001-0.002 0.002-0.004 0.003-0.007 0.006l0.909 1.223c0.197-0.146 0.357-0.333 0.468-0.558l-1.367-0.674zM25.419 26.783c-0.018 0.014-0.055 0.035-0.123 0.054l0.409 1.468c0.221-0.061 0.433-0.158 0.623-0.299l-0.909-1.223zM25.296 26.837c-0.067 0.018-0.158 0.032-0.28 0.032v1.524c0.235 0 0.466-0.026 0.689-0.088l-0.409-1.468zM25.016 26.869c-0.094 0-0.186-0.012-0.279-0.037l-0.393 1.472c0.22 0.059 0.444 0.088 0.672 0.088v-1.524zM24.744 26.834c-0.081-0.022-0.147-0.054-0.203-0.091l-0.852 1.263c0.2 0.135 0.418 0.233 0.65 0.297l0.406-1.469zM24.544 26.745c-0.030-0.020-0.051-0.044-0.070-0.077l-1.326 0.751c0.133 0.235 0.314 0.432 0.537 0.584l0.859-1.259zM24.474 26.668c-0.001-0.001-0.004-0.007-0.007-0.021s-0.008-0.040-0.008-0.079h-1.524c0 0.29 0.061 0.583 0.213 0.851l1.326-0.751zM23.697 27.33h0.672v-1.524h-0.672v1.524zM23.607 26.568c0 0.176 0.027 0.374 0.113 0.567l1.391-0.622c0.012 0.028 0.017 0.048 0.019 0.057s0.001 0.009 0.001-0.003h-1.524zM23.72 27.136c0.079 0.177 0.2 0.338 0.365 0.465l0.924-1.211c0.052 0.040 0.085 0.088 0.102 0.125l-1.391 0.622zM24.093 27.606c0.149 0.111 0.313 0.182 0.479 0.222l0.363-1.48c0.008 0.002 0.035 0.010 0.068 0.035l-0.909 1.223zM24.574 27.829c0.147 0.035 0.295 0.050 0.442 0.050v-1.524c-0.044 0-0.071-0.005-0.085-0.008l-0.357 1.481zM25.016 27.879c0.18 0 0.389-0.024 0.593-0.114l-0.614-1.395c0.029-0.013 0.048-0.016 0.051-0.017s-0.006 0.001-0.029 0.001v1.524zM25.604 27.768c0.189-0.081 0.381-0.219 0.514-0.436l-1.298-0.799c0.063-0.102 0.143-0.148 0.18-0.164l0.604 1.399zM26.111 27.343c0.12-0.188 0.176-0.398 0.176-0.608h-1.524c0-0.064 0.019-0.143 0.065-0.215l1.283 0.822zM28.103 24.336h0.762v-0.762h-0.762v0.762zM28.103 27.586v0.762h0.762v-0.762h-0.762zM27.436 27.586h-0.762v0.762h0.762v-0.762zM27.436 24.336v-0.762h-0.762v0.762h0.762zM29.103 24.336h0.762v-0.762h-0.762v0.762zM29.103 24.861v0.762h0.762v-0.762h-0.762zM26.451 24.861h-0.762v0.762h0.762v-0.762zM26.451 24.336v-0.762h-0.762v0.762h0.762zM27.341 24.336v3.25h1.524v-3.25h-1.524zM28.103 26.824h-0.667v1.524h0.667v-1.524zM28.198 27.586v-3.25h-1.524v3.25h1.524zM27.436 25.098h0.667v-1.524h-0.667v1.524zM28.341 24.336v0.525h1.524v-0.525h-1.524zM29.103 24.099h-2.652v1.524h2.652v-1.524zM27.213 24.861v-0.525h-1.524v0.525h1.524zM26.451 25.098h2.652v-1.524h-2.652v1.524zM31.666 27.064h0.762v-0.762h-0.762v0.762zM31.666 27.586v0.762h0.762v-0.762h-0.762zM29.936 27.586h-0.762v0.762h0.762v-0.762zM29.936 27.064v-0.762h-0.762v0.762h0.762zM30.154 24.336h0.762v-0.762h-0.762v0.762zM30.154 27.586v0.762h0.762v-0.762h-0.762zM29.485 27.586h-0.762v0.762h0.762v-0.762zM29.485 24.336v-0.762h-0.762v0.762h0.762zM31.44 25.66h0.762v-0.762h-0.762v0.762zM31.44 26.169v0.762h0.762v-0.762h-0.762zM29.936 26.169h-0.762v0.762h0.762v-0.762zM29.936 25.66v-0.762h-0.762v0.762h0.762zM31.663 24.336h0.762v-0.762h-0.762v0.762zM31.663 24.861v0.762h0.762v-0.762h-0.762zM29.936 24.861h-0.762v0.762h0.762v-0.762zM29.936 24.336v-0.762h-0.762v0.762h0.762zM30.904 27.064v0.522h1.524v-0.522h-1.524zM31.666 26.824h-1.73v1.524h1.73v-1.524zM30.698 27.586v-0.522h-1.524v0.522h1.524zM29.936 27.826h1.73v-1.524h-1.73v1.524zM29.393 24.336v3.25h1.524v-3.25h-1.524zM30.154 26.824h-0.67v1.524h0.67v-1.524zM30.247 27.586v-3.25h-1.524v3.25h1.524zM29.485 25.098h0.67v-1.524h-0.67v1.524zM30.678 25.66v0.509h1.524v-0.509h-1.524zM31.44 25.407h-1.504v1.524h1.504v-1.524zM30.698 26.169v-0.509h-1.524v0.509h1.524zM29.936 26.422h1.504v-1.524h-1.504v1.524zM30.902 24.336v0.525h1.524v-0.525h-1.524zM31.663 24.099h-1.728v1.524h1.728v-1.524zM30.698 24.861v-0.525h-1.524v0.525h1.524zM29.936 25.098h1.728v-1.524h-1.728v1.524zM32.056 24.336v-0.762h-0.762v0.762h0.762zM33.909 24.448l-0.293 0.703 0.002 0.001 0.291-0.704zM34.38 25.765l-0.688-0.328-0.002 0.004 0.69 0.324zM34.132 26.075l0.467 0.602 0.001-0.001-0.468-0.601zM33.759 26.271l-0.248-0.721-0.055 0.019-0.052 0.027 0.355 0.674zM33.547 26.383v0.762h0.188l0.167-0.088-0.355-0.674zM32.494 26.383l-0.762 0.007 0.006 0.755h0.755v-0.762zM32.489 25.861v-0.762h-0.768l0.007 0.768 0.762-0.006zM33.739 25.624l-0.67-0.362-0.003 0.005-0.003 0.005 0.676 0.351zM32.726 24.861v-0.762h-0.762v0.762h0.762zM32.726 27.586v0.762h0.762v-0.762h-0.762zM32.056 27.586h-0.762v0.762h0.762v-0.762zM33.873 27.586l-0.678 0.347 0.212 0.415h0.466v-0.762zM33.132 26.138l-0.005-0.762-1.237 0.008 0.563 1.101 0.678-0.347zM33.84 26.133l0.674-0.355-0.216-0.409-0.463 0.003 0.005 0.762zM34.59 27.555h0.762v-0.189l-0.088-0.167-0.674 0.355zM34.59 27.586v0.762h0.762v-0.762h-0.762zM32.056 25.098h1.212v-1.524h-1.212v1.524zM33.268 25.098c0.175 0 0.284 0.027 0.348 0.053l0.586-1.407c-0.294-0.122-0.612-0.17-0.934-0.17v1.524zM33.618 25.152c0.056 0.023 0.068 0.042 0.071 0.047l1.27-0.842c-0.19-0.286-0.455-0.488-0.759-0.613l-0.582 1.408zM33.689 25.199c0 0 0.004 0.006 0.008 0.021 0.004 0.016 0.010 0.047 0.010 0.096h1.524c0-0.33-0.076-0.664-0.272-0.959l-1.27 0.842zM33.707 25.316c0 0.044-0.004 0.075-0.008 0.094s-0.008 0.027-0.008 0.027l1.376 0.655c0.119-0.25 0.163-0.517 0.163-0.776h-1.524zM33.69 25.441c-0.007 0.015-0.014 0.024-0.026 0.033l0.936 1.203c0.202-0.157 0.361-0.356 0.47-0.588l-1.379-0.648zM33.666 25.473c-0.032 0.025-0.080 0.053-0.154 0.078l0.495 1.441c0.212-0.073 0.412-0.175 0.592-0.315l-0.933-1.205zM33.405 25.597l-0.212 0.112 0.71 1.348 0.212-0.112-0.71-1.348zM33.547 25.621h-1.054v1.524h1.054v-1.524zM33.256 26.377l-0.005-0.522-1.524 0.013 0.005 0.522 1.524-0.013zM32.489 26.623h0.783v-1.524h-0.783v1.524zM33.273 26.623c0.203 0 0.434-0.035 0.654-0.154l-0.722-1.342c0.065-0.035 0.101-0.029 0.069-0.029v1.524zM33.926 26.469c0.205-0.11 0.376-0.277 0.489-0.493l-1.352-0.703c0.016-0.030 0.037-0.061 0.065-0.088s0.054-0.046 0.076-0.057l0.722 1.342zM34.41 25.986c0.109-0.202 0.152-0.417 0.152-0.621h-1.524c0-0.008 0.002-0.050 0.031-0.103l1.341 0.724zM34.562 25.365c0-0.198-0.037-0.412-0.141-0.616l-1.358 0.692c-0.027-0.053-0.025-0.086-0.025-0.076h1.524zM34.42 24.749c-0.115-0.225-0.293-0.397-0.509-0.507l-0.692 1.358c-0.025-0.013-0.056-0.033-0.086-0.063s-0.054-0.063-0.070-0.096l1.358-0.692zM33.911 24.242c-0.216-0.11-0.443-0.143-0.643-0.143v1.524c0.017 0 0.020 0.002 0.012-0s-0.031-0.007-0.061-0.023l0.692-1.358zM33.268 24.099h-0.542v1.524h0.542v-1.524zM31.964 24.861v2.725h1.524v-2.725h-1.524zM32.726 26.824h-0.67v1.524h0.67v-1.524zM32.818 27.586v-3.25h-1.524v3.25h1.524zM34.552 27.239l-0.741-1.449-1.357 0.694 0.741 1.449 1.357-0.694zM33.137 26.899l0.708-0.004-0.010-1.524-0.708 0.005 0.010 1.524zM33.166 26.489l0.75 1.422 1.348-0.711-0.75-1.422-1.348 0.711zM33.828 27.555v0.031h1.524v-0.031h-1.524zM34.59 26.824h-0.717v1.524h0.717v-1.524zM36.561 26.428h-0.762v0.762h0.762v-0.762zM36.561 25.905v-0.762h-0.762v0.762h0.762zM37.701 25.843l0.351 0.676 0.010-0.005-0.36-0.671zM36.793 24.861v-0.762h-0.762v0.762h0.762zM36.793 27.586v0.762h0.762v-0.762h-0.762zM36.123 27.586h-0.762v0.762h0.762v-0.762zM36.123 24.336v-0.762h-0.762v0.762h0.762zM38.043 24.475l-0.345 0.679 0.007 0.003 0.339-0.683zM38.043 26.303l-0.316-0.693-0.002 0.001 0.318 0.692zM37.389 25.666h-0.828v1.524h0.828v-1.524zM37.323 26.428v-0.522h-1.524v0.522h1.524zM36.561 26.667h0.828v-1.524h-0.828v1.524zM37.389 26.667c0.203 0 0.439-0.032 0.663-0.148l-0.701-1.353c0.033-0.017 0.057-0.023 0.063-0.024s-0.001 0.001-0.025 0.001v1.524zM38.062 26.514c0.209-0.112 0.387-0.284 0.5-0.514l-1.368-0.671c0.017-0.035 0.041-0.069 0.070-0.098s0.057-0.048 0.077-0.059l0.721 1.342zM38.562 26c0.094-0.193 0.134-0.395 0.134-0.592h-1.524c0-0.002 0-0.011 0.003-0.026s0.009-0.033 0.019-0.052l1.368 0.671zM38.695 25.408c0-0.197-0.039-0.394-0.122-0.581l-1.391 0.621c-0.004-0.009-0.007-0.018-0.009-0.026s-0.002-0.013-0.002-0.014h1.524zM38.574 24.827c-0.101-0.227-0.264-0.408-0.466-0.535l-0.812 1.29c-0.018-0.011-0.040-0.029-0.062-0.054s-0.039-0.053-0.051-0.079l1.391-0.621zM38.107 24.292c-0.237-0.149-0.495-0.193-0.718-0.193v1.524c0.033 0-0.017 0.007-0.093-0.041l0.812-1.29zM37.389 24.099h-0.596v1.524h0.596v-1.524zM36.031 24.861v2.725h1.524v-2.725h-1.524zM36.793 26.824h-0.67v1.524h0.67v-1.524zM36.885 27.586v-3.25h-1.524v3.25h1.524zM36.123 25.098h1.266v-1.524h-1.266v1.524zM37.389 25.098c0.164 0 0.258 0.030 0.309 0.056l0.69-1.358c-0.312-0.158-0.654-0.221-0.999-0.221v1.524zM37.704 25.157c0.065 0.032 0.090 0.062 0.105 0.088l1.306-0.786c-0.178-0.296-0.433-0.518-0.734-0.667l-0.677 1.365zM37.81 25.245c0.018 0.030 0.036 0.075 0.036 0.158h1.524c0-0.331-0.079-0.653-0.254-0.944l-1.306 0.786zM37.846 25.403c0 0.089-0.019 0.125-0.028 0.138l1.289 0.813c0.185-0.293 0.263-0.621 0.263-0.951h-1.524zM37.818 25.541c-0.009 0.014-0.028 0.039-0.091 0.068l0.631 1.387c0.303-0.138 0.564-0.349 0.748-0.642l-1.289-0.813zM37.725 25.61c-0.059 0.027-0.162 0.056-0.336 0.056v1.524c0.335 0 0.667-0.055 0.972-0.194l-0.636-1.385zM41.251 27.064h0.762v-0.762h-0.762v0.762zM41.251 27.586v0.762h0.762v-0.762h-0.762zM39.521 27.586h-0.762v0.762h0.762v-0.762zM39.521 27.064v-0.762h-0.762v0.762h0.762zM39.739 24.336h0.762v-0.762h-0.762v0.762zM39.739 27.586v0.762h0.762v-0.762h-0.762zM39.070 27.586h-0.762v0.762h0.762v-0.762zM39.070 24.336v-0.762h-0.762v0.762h0.762zM41.025 25.66h0.762v-0.762h-0.762v0.762zM41.025 26.169v0.762h0.762v-0.762h-0.762zM39.521 26.169h-0.762v0.762h0.762v-0.762zM39.521 25.66v-0.762h-0.762v0.762h0.762zM41.248 24.336h0.762v-0.762h-0.762v0.762zM41.248 24.861v0.762h0.762v-0.762h-0.762zM39.521 24.861h-0.762v0.762h0.762v-0.762zM39.521 24.336v-0.762h-0.762v0.762h0.762zM40.489 27.064v0.522h1.524v-0.522h-1.524zM41.251 26.824h-1.73v1.524h1.73v-1.524zM40.282 27.586v-0.522h-1.524v0.522h1.524zM39.521 27.826h1.73v-1.524h-1.73v1.524zM38.977 24.336v3.25h1.524v-3.25h-1.524zM39.739 26.824h-0.67v1.524h0.67v-1.524zM39.832 27.586v-3.25h-1.524v3.25h1.524zM39.070 25.098h0.67v-1.524h-0.67v1.524zM40.263 25.66v0.509h1.524v-0.509h-1.524zM41.025 25.407h-1.504v1.524h1.504v-1.524zM40.282 26.169v-0.509h-1.524v0.509h1.524zM39.521 26.422h1.504v-1.524h-1.504v1.524zM40.486 24.336v0.525h1.524v-0.525h-1.524zM41.248 24.099h-1.728v1.524h1.728v-1.524zM40.282 24.861v-0.525h-1.524v0.525h1.524zM39.521 25.098h1.728v-1.524h-1.728v1.524zM43.139 24.336h0.762v-0.762h-0.762v0.762zM43.139 27.586v0.762h0.762v-0.762h-0.762zM42.471 27.586h-0.762v0.762h0.762v-0.762zM42.471 24.336v-0.762h-0.762v0.762h0.762zM44.139 24.336h0.762v-0.762h-0.762v0.762zM44.139 24.861v0.762h0.762v-0.762h-0.762zM41.487 24.861h-0.762v0.762h0.762v-0.762zM41.487 24.336v-0.762h-0.762v0.762h0.762zM42.377 24.336v3.25h1.524v-3.25h-1.524zM43.139 26.824h-0.667v1.524h0.667v-1.524zM43.233 27.586v-3.25h-1.524v3.25h1.524zM42.471 25.098h0.667v-1.524h-0.667v1.524zM43.377 24.336v0.525h1.524v-0.525h-1.524zM44.139 24.099h-2.652v1.524h2.652v-1.524zM42.249 24.861v-0.525h-1.524v0.525h1.524zM41.487 25.098h2.652v-1.524h-2.652v1.524zM46.701 27.064h0.762v-0.762h-0.762v0.762zM46.701 27.586v0.762h0.762v-0.762h-0.762zM44.971 27.586h-0.762v0.762h0.762v-0.762zM44.971 27.064v-0.762h-0.762v0.762h0.762zM45.19 24.336h0.762v-0.762h-0.762v0.762zM45.19 27.586v0.762h0.762v-0.762h-0.762zM44.521 27.586h-0.762v0.762h0.762v-0.762zM44.521 24.336v-0.762h-0.762v0.762h0.762zM46.476 25.66h0.762v-0.762h-0.762v0.762zM46.476 26.169v0.762h0.762v-0.762h-0.762zM44.971 26.169h-0.762v0.762h0.762v-0.762zM44.971 25.66v-0.762h-0.762v0.762h0.762zM46.699 24.336h0.762v-0.762h-0.762v0.762zM46.699 24.861v0.762h0.762v-0.762h-0.762zM44.971 24.861h-0.762v0.762h0.762v-0.762zM44.971 24.336v-0.762h-0.762v0.762h0.762zM45.94 27.064v0.522h1.524v-0.522h-1.524zM46.701 26.824h-1.73v1.524h1.73v-1.524zM45.733 27.586v-0.522h-1.524v0.522h1.524zM44.971 27.826h1.73v-1.524h-1.73v1.524zM44.428 24.336v3.25h1.524v-3.25h-1.524zM45.19 26.824h-0.67v1.524h0.67v-1.524zM45.282 27.586v-3.25h-1.524v3.25h1.524zM44.521 25.098h0.67v-1.524h-0.67v1.524zM45.714 25.66v0.509h1.524v-0.509h-1.524zM46.476 25.407h-1.504v1.524h1.504v-1.524zM45.733 26.169v-0.509h-1.524v0.509h1.524zM44.971 26.422h1.504v-1.524h-1.504v1.524zM45.937 24.336v0.525h1.524v-0.525h-1.524zM46.699 24.099h-1.728v1.524h1.728v-1.524zM45.733 24.861v-0.525h-1.524v0.525h1.524zM44.971 25.098h1.728v-1.524h-1.728v1.524zM47.092 24.336v-0.762h-0.762v0.762h0.762zM48.945 24.448l-0.293 0.703 0.002 0.001 0.291-0.704zM49.416 25.765l-0.688-0.328-0.002 0.004 0.69 0.324zM49.168 26.075l0.467 0.602 0.001-0.001-0.468-0.601zM48.795 26.271l-0.248-0.721-0.055 0.019-0.052 0.027 0.355 0.674zM48.583 26.383v0.762h0.188l0.167-0.088-0.355-0.674zM47.53 26.383l-0.762 0.007 0.006 0.755h0.755v-0.762zM47.525 25.861v-0.762h-0.768l0.007 0.768 0.762-0.006zM48.775 25.624l-0.67-0.362-0.003 0.005-0.003 0.005 0.676 0.351zM47.762 24.861v-0.762h-0.762v0.762h0.762zM47.762 27.586v0.762h0.762v-0.762h-0.762zM47.092 27.586h-0.762v0.762h0.762v-0.762zM48.909 27.586l-0.678 0.347 0.212 0.415h0.466v-0.762zM48.168 26.138l-0.005-0.762-1.237 0.008 0.563 1.101 0.678-0.347zM48.876 26.133l0.674-0.355-0.216-0.409-0.463 0.003 0.005 0.762zM49.626 27.555h0.762v-0.189l-0.088-0.167-0.674 0.355zM49.626 27.586v0.762h0.762v-0.762h-0.762zM47.092 25.098h1.212v-1.524h-1.212v1.524zM48.304 25.098c0.175 0 0.284 0.027 0.348 0.053l0.586-1.407c-0.294-0.122-0.612-0.17-0.934-0.17v1.524zM48.654 25.152c0.056 0.023 0.068 0.042 0.071 0.047l1.27-0.842c-0.19-0.286-0.455-0.488-0.759-0.613l-0.582 1.408zM48.725 25.199c0 0 0.004 0.006 0.008 0.021 0.004 0.016 0.010 0.047 0.010 0.096h1.524c0-0.33-0.076-0.664-0.272-0.959l-1.27 0.842zM48.743 25.316c0 0.044-0.004 0.075-0.008 0.094s-0.008 0.027-0.008 0.027l1.376 0.655c0.119-0.25 0.163-0.517 0.163-0.776h-1.524zM48.726 25.441c-0.007 0.015-0.014 0.024-0.026 0.033l0.935 1.203c0.202-0.157 0.361-0.356 0.47-0.588l-1.379-0.648zM48.701 25.473c-0.032 0.025-0.080 0.053-0.154 0.078l0.495 1.441c0.212-0.073 0.412-0.175 0.592-0.315l-0.933-1.205zM48.44 25.597l-0.212 0.112 0.71 1.348 0.212-0.112-0.71-1.348zM48.583 25.621h-1.054v1.524h1.054v-1.524zM48.291 26.377l-0.005-0.522-1.524 0.013 0.004 0.522 1.524-0.013zM47.525 26.623h0.784v-1.524h-0.784v1.524zM48.309 26.623c0.203 0 0.434-0.035 0.654-0.154l-0.722-1.342c0.065-0.035 0.101-0.029 0.069-0.029v1.524zM48.962 26.469c0.205-0.11 0.376-0.277 0.489-0.493l-1.352-0.703c0.016-0.030 0.037-0.061 0.065-0.088s0.054-0.046 0.076-0.057l0.722 1.342zM49.446 25.986c0.109-0.202 0.152-0.417 0.152-0.621h-1.524c0-0.008 0.002-0.050 0.031-0.103l1.341 0.724zM49.597 25.365c0-0.198-0.037-0.412-0.141-0.616l-1.358 0.692c-0.027-0.053-0.025-0.086-0.025-0.076h1.524zM49.456 24.749c-0.115-0.225-0.293-0.397-0.509-0.507l-0.692 1.358c-0.025-0.013-0.056-0.033-0.086-0.063s-0.054-0.063-0.070-0.096l1.358-0.692zM48.947 24.242c-0.216-0.11-0.443-0.143-0.643-0.143v1.524c0.017 0 0.020 0.002 0.012-0s-0.031-0.007-0.061-0.023l0.692-1.358zM48.304 24.099h-0.542v1.524h0.542v-1.524zM47 24.861v2.725h1.524v-2.725h-1.524zM47.762 26.824h-0.67v1.524h0.67v-1.524zM47.854 27.586v-3.25h-1.524v3.25h1.524zM49.587 27.239l-0.741-1.449-1.357 0.694 0.741 1.449 1.357-0.694zM48.173 26.899l0.708-0.004-0.010-1.524-0.708 0.005 0.010 1.524zM48.202 26.489l0.75 1.422 1.348-0.711-0.75-1.422-1.348 0.711zM48.864 27.555v0.031h1.524v-0.031h-1.524zM49.626 26.824h-0.717v1.524h0.717v-1.524zM51.686 26.579l-0.721 0.248 0.005 0.014 0.005 0.014 0.711-0.275zM51.592 26.45l-0.5 0.575 0.005 0.005 0.005 0.005 0.49-0.584zM51.074 26.211l-0.234 0.725 0.006 0.002 0.229-0.727zM50.655 26.050l-0.315 0.694 0.003 0.001 0.312-0.695zM50.306 25.843l-0.478 0.593 0.010 0.008 0.468-0.601zM50.070 25.564l-0.672 0.36 0.004 0.007 0.668-0.367zM50.074 24.827l0.67 0.362 0.002-0.004-0.672-0.359zM50.324 24.542l0.452 0.614 0.005-0.004-0.457-0.61zM50.704 24.356l-0.214-0.731-0.002 0.001 0.216 0.731zM52.23 24.776l-0.638 0.417 0.003 0.004 0.635-0.421zM52.38 25.292v0.762h0.762v-0.762h-0.762zM51.715 25.292h-0.762v0.762h0.762v-0.762zM51.655 25.042l-0.673 0.357 0.004 0.008 0.005 0.008 0.664-0.373zM51.476 24.87l-0.356 0.674 0.005 0.003 0.351-0.676zM50.887 24.861l0.308 0.697 0.006-0.002 0.005-0.003-0.319-0.692zM50.713 25.001l0.634 0.423 0.005-0.007-0.639-0.415zM50.695 25.347l-0.653 0.392 0.005 0.008 0.005 0.008 0.644-0.408zM51.302 25.682l-0.226 0.728 0.005 0.001 0.221-0.729zM51.768 25.863l-0.341 0.681 0.003 0.002 0.338-0.683zM50.728 27.568l-0.203 0.734 0.007 0.002 0.196-0.736zM50.302 27.374l-0.429 0.629 0.003 0.002 0.426-0.632zM49.884 26.568v-0.762h-0.762v0.762h0.762zM50.556 26.568h0.762v-0.762h-0.762v0.762zM50.735 26.995l-0.462 0.606 0.008 0.006 0.455-0.611zM50.94 27.088l-0.182 0.74 0.003 0.001 0.178-0.741zM51.489 27.068l-0.302-0.7-0.005 0.002 0.307 0.697zM51.657 26.932l-0.641-0.411-0.007 0.012 0.649 0.399zM52.474 26.736c0-0.136-0.021-0.284-0.078-0.431l-1.421 0.55c-0.021-0.055-0.025-0.099-0.025-0.119h1.524zM52.406 26.332c-0.069-0.202-0.193-0.355-0.325-0.466l-0.979 1.168c-0.039-0.033-0.1-0.1-0.137-0.207l1.441-0.495zM52.092 25.875c-0.12-0.105-0.254-0.179-0.374-0.235l-0.642 1.382c0.010 0.005 0.018 0.009 0.024 0.012s0.010 0.005 0.011 0.006c0.002 0.001 0 0-0.003-0.002s-0.010-0.007-0.018-0.014l1.001-1.149zM51.719 25.641c-0.124-0.058-0.266-0.109-0.416-0.156l-0.457 1.454c0.115 0.036 0.189 0.065 0.231 0.085l0.642-1.382zM51.309 25.486c-0.123-0.040-0.236-0.083-0.342-0.131l-0.625 1.39c0.159 0.072 0.326 0.135 0.498 0.191l0.469-1.45zM50.97 25.357c-0.083-0.038-0.146-0.077-0.195-0.115l-0.937 1.202c0.154 0.12 0.322 0.219 0.501 0.3l0.631-1.387zM50.784 25.25c-0.027-0.022-0.040-0.039-0.047-0.053l-1.336 0.734c0.109 0.198 0.254 0.367 0.426 0.505l0.956-1.186zM50.742 25.204c0.002 0.005 0.004 0.009 0.005 0.012s0.002 0.005 0.002 0.005c0 0-0.002-0.007-0.002-0.026h-1.524c0 0.244 0.050 0.494 0.175 0.728l1.344-0.719zM50.747 25.196c0-0.012 0.001-0.016 0.001-0.014s-0 0.002-0.001 0.003-0.001 0.003-0.002 0.005l-1.341-0.725c-0.124 0.23-0.181 0.479-0.181 0.731h1.524zM50.746 25.186c0.003-0.006 0.009-0.016 0.029-0.031l-0.903-1.227c-0.194 0.143-0.355 0.323-0.471 0.541l1.345 0.717zM50.781 25.151c0.026-0.019 0.068-0.043 0.139-0.064l-0.432-1.461c-0.221 0.065-0.432 0.165-0.62 0.306l0.914 1.219zM50.918 25.087c0.069-0.020 0.157-0.034 0.27-0.034v-1.524c-0.238 0-0.473 0.029-0.699 0.095l0.428 1.462zM51.188 25.053c0.148 0 0.24 0.026 0.296 0.054l0.663-1.372c-0.301-0.146-0.628-0.205-0.959-0.205v1.524zM51.484 25.107c0.067 0.033 0.094 0.063 0.109 0.086l1.276-0.834c-0.182-0.278-0.432-0.484-0.721-0.624l-0.663 1.372zM51.596 25.197c0.011 0.016 0.023 0.039 0.023 0.094h1.524c0-0.332-0.088-0.652-0.277-0.937l-1.27 0.842zM52.38 24.53h-0.665v1.524h0.665v-1.524zM52.477 25.292c0-0.205-0.044-0.421-0.158-0.624l-1.328 0.747c-0.034-0.060-0.038-0.109-0.038-0.123h1.524zM52.328 24.684c-0.118-0.223-0.297-0.385-0.501-0.491l-0.701 1.353c-0.019-0.010-0.045-0.026-0.073-0.053s-0.053-0.059-0.071-0.094l1.346-0.714zM51.832 24.196c-0.22-0.116-0.452-0.151-0.655-0.151v1.524c0.017 0 0.019 0.002 0.009-0s-0.034-0.008-0.066-0.025l0.712-1.347zM51.177 24.045c-0.189 0-0.403 0.028-0.609 0.124l0.639 1.384c-0.027 0.012-0.046 0.016-0.050 0.017s0.002-0.001 0.021-0.001v-1.524zM50.578 24.164c-0.186 0.082-0.371 0.217-0.505 0.422l1.278 0.83c-0.056 0.087-0.125 0.127-0.157 0.141l-0.616-1.394zM50.079 24.579c-0.126 0.189-0.186 0.403-0.186 0.619h1.524c0 0.032-0.004 0.070-0.017 0.112s-0.031 0.081-0.053 0.114l-1.268-0.845zM49.893 25.198c0 0.185 0.047 0.372 0.149 0.542l1.307-0.784c0.048 0.081 0.068 0.168 0.068 0.242h-1.524zM50.051 25.755c0.094 0.149 0.215 0.259 0.331 0.341l0.876-1.247c0.005 0.004 0.043 0.031 0.081 0.091l-1.287 0.815zM50.382 26.096c0.109 0.077 0.227 0.138 0.343 0.187l0.597-1.402c-0.022-0.009-0.038-0.017-0.048-0.023s-0.016-0.009-0.015-0.009l-0.876 1.247zM50.724 26.283c0.11 0.047 0.228 0.089 0.352 0.127l0.451-1.456c-0.087-0.027-0.155-0.052-0.206-0.074l-0.597 1.402zM51.081 26.411c0.145 0.044 0.259 0.089 0.346 0.133l0.681-1.363c-0.18-0.090-0.377-0.165-0.587-0.229l-0.441 1.459zM51.431 26.546c0.085 0.042 0.134 0.079 0.162 0.104l1.031-1.122c-0.154-0.142-0.331-0.255-0.517-0.347l-0.675 1.366zM51.592 26.65c0.018 0.017 0.022 0.025 0.022 0.027l1.397-0.61c-0.092-0.21-0.225-0.39-0.388-0.54l-1.031 1.122zM51.615 26.677c-0.002-0.005 0.005 0.009 0.005 0.054h1.524c0-0.222-0.038-0.448-0.133-0.664l-1.397 0.61zM51.62 26.731c0 0.021-0.002 0.034-0.003 0.039s-0.002 0.006-0.001 0.004l1.367 0.674c0.113-0.23 0.161-0.474 0.161-0.717h-1.524zM51.616 26.774c-0 0.001-0 0.001-0 0.001s0-0 0-0-0.001 0.001-0.002 0.002-0.004 0.003-0.007 0.006l0.909 1.223c0.197-0.146 0.357-0.333 0.468-0.558l-1.367-0.674zM51.606 26.783c-0.018 0.014-0.055 0.035-0.123 0.054l0.409 1.468c0.221-0.061 0.433-0.158 0.623-0.299l-0.909-1.223zM51.484 26.837c-0.067 0.018-0.158 0.032-0.28 0.032v1.524c0.235 0 0.467-0.026 0.689-0.088l-0.409-1.468zM51.204 26.869c-0.094 0-0.187-0.012-0.279-0.037l-0.393 1.472c0.22 0.059 0.444 0.088 0.672 0.088v-1.524zM50.931 26.834c-0.081-0.022-0.147-0.054-0.203-0.091l-0.852 1.263c0.2 0.135 0.418 0.233 0.65 0.297l0.406-1.469zM50.731 26.745c-0.030-0.020-0.051-0.044-0.070-0.077l-1.326 0.751c0.133 0.235 0.314 0.432 0.537 0.584l0.859-1.259zM50.661 26.668c-0.001-0.001-0.004-0.007-0.007-0.021s-0.008-0.040-0.008-0.079h-1.524c0 0.29 0.061 0.583 0.213 0.851l1.326-0.751zM49.884 27.33h0.672v-1.524h-0.672v1.524zM49.794 26.568c0 0.176 0.027 0.374 0.113 0.567l1.391-0.622c0.012 0.028 0.017 0.048 0.019 0.057s0.001 0.009 0.001-0.003h-1.524zM49.908 27.136c0.079 0.177 0.2 0.338 0.365 0.465l0.924-1.211c0.052 0.040 0.085 0.088 0.102 0.125l-1.391 0.622zM50.28 27.606c0.149 0.111 0.313 0.182 0.478 0.222l0.363-1.48c0.008 0.002 0.035 0.010 0.068 0.035l-0.909 1.223zM50.762 27.829c0.147 0.035 0.295 0.050 0.442 0.050v-1.524c-0.044 0-0.071-0.005-0.085-0.008l-0.357 1.481zM51.204 27.879c0.18 0 0.389-0.024 0.593-0.114l-0.614-1.395c0.029-0.013 0.048-0.016 0.051-0.017s-0.006 0.001-0.029 0.001v1.524zM51.791 27.768c0.189-0.081 0.381-0.219 0.514-0.436l-1.298-0.799c0.063-0.102 0.143-0.148 0.18-0.164l0.604 1.399zM52.298 27.343c0.12-0.188 0.176-0.398 0.176-0.608h-1.524c0-0.064 0.019-0.143 0.065-0.215l1.283 0.822z"></path>
</symbol>
<symbol id="icon-group" viewBox="0 0 28 32">
<path fill="#afb1b8" style="fill: var(--color3, #afb1b8)" d="M4.085 0l4.771 4.517-8.856-0.005v21.915h23.149v-8.379l4.766 4.512v-22.559h-23.83zM22.939 17.517l-13.528-12.807h13.528v12.807zM18.739 23.221h-15.076v-14.739h1.066v13.741h14.010v0.998zM7.223 29.344l-0.557 1.147-0.557-1.147h-0.467l0.813 1.529v0.891h0.422v-0.891l0.811-1.529h-0.465zM7.923 31.764l0.196-0.563h0.938l0.198 0.563h0.439l-0.916-2.42h-0.377l-0.914 2.42h0.437zM8.588 29.858l0.351 1.004h-0.701l0.351-1.004zM10.805 30.804c-0.061 0.093-0.091 0.196-0.091 0.307 0 0.204 0.072 0.37 0.214 0.497 0.144 0.126 0.336 0.189 0.575 0.189s0.445-0.065 0.618-0.194l0.136 0.161h0.469l-0.356-0.421c0.14-0.191 0.209-0.435 0.209-0.733h-0.351c0 0.163-0.034 0.311-0.101 0.444l-0.467-0.552 0.165-0.12c0.116-0.084 0.2-0.168 0.251-0.253 0.051-0.085 0.076-0.178 0.076-0.279 0-0.153-0.056-0.281-0.17-0.384-0.112-0.104-0.256-0.156-0.432-0.156-0.195 0-0.35 0.055-0.465 0.166-0.115 0.11-0.173 0.259-0.173 0.449 0 0.078 0.018 0.158 0.055 0.241 0.038 0.083 0.104 0.184 0.198 0.303-0.18 0.129-0.3 0.24-0.361 0.334zM11.897 31.339c-0.119 0.091-0.246 0.136-0.382 0.136-0.121 0-0.217-0.035-0.289-0.105s-0.108-0.161-0.108-0.273c0-0.13 0.067-0.245 0.2-0.346l0.052-0.037 0.529 0.623zM11.463 30.267c-0.114-0.141-0.171-0.258-0.171-0.351 0-0.081 0.023-0.148 0.070-0.201s0.109-0.080 0.188-0.080c0.073 0 0.133 0.023 0.181 0.068 0.048 0.044 0.072 0.098 0.072 0.161 0 0.095-0.034 0.173-0.103 0.234l-0.052 0.042-0.184 0.126zM15.403 31.581c0.166-0.145 0.262-0.347 0.286-0.605h-0.419c-0.022 0.173-0.075 0.296-0.158 0.371s-0.207 0.111-0.372 0.111c-0.181 0-0.318-0.069-0.412-0.206-0.093-0.137-0.14-0.337-0.14-0.598v-0.214c0.002-0.258 0.052-0.454 0.15-0.587 0.099-0.134 0.239-0.201 0.422-0.201 0.157 0 0.277 0.039 0.357 0.116 0.082 0.076 0.133 0.202 0.153 0.376h0.419c-0.027-0.265-0.121-0.47-0.284-0.615s-0.378-0.218-0.645-0.218c-0.198 0-0.373 0.047-0.525 0.141-0.151 0.094-0.267 0.228-0.347 0.402s-0.121 0.375-0.121 0.603v0.226c0.003 0.223 0.045 0.418 0.125 0.587s0.193 0.299 0.339 0.391c0.147 0.091 0.317 0.136 0.51 0.136 0.276 0 0.497-0.072 0.663-0.216zM17.875 31.242c0.082-0.18 0.123-0.388 0.123-0.625v-0.135c-0.001-0.236-0.043-0.443-0.126-0.62-0.083-0.178-0.201-0.315-0.354-0.409-0.152-0.095-0.326-0.143-0.524-0.143s-0.372 0.048-0.525 0.145c-0.152 0.095-0.27 0.233-0.354 0.414-0.083 0.181-0.125 0.389-0.125 0.625v0.136c0.001 0.232 0.043 0.436 0.126 0.613 0.084 0.177 0.203 0.314 0.356 0.411 0.154 0.095 0.329 0.143 0.525 0.143 0.198 0 0.373-0.048 0.525-0.143 0.153-0.096 0.27-0.234 0.352-0.412zM17.424 29.874c0.102 0.143 0.153 0.349 0.153 0.617v0.126c0 0.273-0.050 0.48-0.151 0.622-0.1 0.142-0.243 0.213-0.429 0.213-0.184 0-0.328-0.073-0.432-0.218-0.103-0.145-0.155-0.351-0.155-0.617v-0.14c0.002-0.26 0.054-0.462 0.156-0.603 0.103-0.143 0.245-0.214 0.427-0.214 0.186 0 0.33 0.072 0.43 0.214z"></path>
</symbol>
<symbol id="icon-icon_post" viewBox="0 0 43 32">
<path fill="#757575" style="fill: var(--color5, #757575)" d="M38.667 0h-34.667c-2.206 0-4 1.794-4 4v24c0 2.206 1.794 4 4 4h34.667c2.206 0 4-1.794 4-4v-24c0-2.206-1.794-4-4-4zM38.667 2.667c0.181 0 0.353 0.038 0.511 0.103l-17.844 15.466-17.844-15.466c0.158-0.066 0.33-0.103 0.511-0.103h34.667zM38.667 29.333h-34.667c-0.736 0-1.333-0.598-1.333-1.333v-22.413l17.793 15.421c0.251 0.217 0.563 0.326 0.874 0.326s0.622-0.108 0.874-0.326l17.793-15.421v22.413c0 0.736-0.598 1.333-1.333 1.333z"></path>
</symbol>
<symbol id="icon-instagram-2" viewBox="0 0 32 32">
<path fill="#afb1b8" style="fill: var(--color3, #afb1b8)" d="M31.969 9.408c-0.075-1.7-0.35-2.869-0.744-3.882-0.406-1.075-1.032-2.038-1.851-2.838-0.8-0.813-1.769-1.444-2.832-1.844-1.019-0.394-2.182-0.669-3.882-0.744-1.713-0.081-2.257-0.1-6.601-0.1s-4.888 0.019-6.595 0.094c-1.7 0.075-2.869 0.35-3.882 0.744-1.075 0.406-2.038 1.031-2.838 1.85-0.813 0.8-1.444 1.769-1.844 2.832-0.394 1.019-0.669 2.182-0.744 3.882-0.081 1.713-0.1 2.257-0.1 6.601s0.019 4.888 0.094 6.595c0.075 1.7 0.35 2.869 0.744 3.882 0.406 1.075 1.038 2.038 1.85 2.838 0.8 0.813 1.769 1.444 2.832 1.844 1.019 0.394 2.182 0.669 3.882 0.744 1.706 0.075 2.25 0.094 6.595 0.094s4.888-0.019 6.595-0.094c1.7-0.075 2.869-0.35 3.882-0.744 2.151-0.832 3.851-2.532 4.682-4.682 0.394-1.019 0.669-2.182 0.744-3.882 0.075-1.707 0.094-2.251 0.094-6.595s-0.006-4.888-0.081-6.595zM29.087 22.473c-0.069 1.563-0.331 2.407-0.55 2.969-0.538 1.394-1.644 2.5-3.038 3.038-0.563 0.219-1.413 0.481-2.969 0.55-1.688 0.075-2.194 0.094-6.464 0.094s-4.782-0.019-6.464-0.094c-1.563-0.069-2.407-0.331-2.969-0.55-0.694-0.256-1.325-0.663-1.838-1.194-0.531-0.519-0.938-1.144-1.194-1.838-0.219-0.563-0.481-1.413-0.55-2.969-0.075-1.688-0.094-2.194-0.094-6.464s0.019-4.782 0.094-6.464c0.069-1.563 0.331-2.407 0.55-2.969 0.256-0.694 0.663-1.325 1.2-1.838 0.519-0.531 1.144-0.938 1.838-1.194 0.563-0.219 1.413-0.481 2.969-0.55 1.688-0.075 2.194-0.094 6.464-0.094 4.276 0 4.782 0.019 6.464 0.094 1.563 0.069 2.407 0.331 2.969 0.55 0.694 0.256 1.325 0.662 1.838 1.194 0.531 0.519 0.938 1.144 1.194 1.838 0.219 0.563 0.481 1.413 0.55 2.969 0.075 1.688 0.094 2.194 0.094 6.464s-0.019 4.77-0.094 6.458z"></path>
<path fill="#afb1b8" style="fill: var(--color3, #afb1b8)" d="M16.059 7.783c-4.538 0-8.22 3.682-8.22 8.22s3.682 8.22 8.22 8.22c4.539 0 8.22-3.682 8.22-8.22s-3.682-8.22-8.22-8.22zM16.059 21.335c-2.944 0-5.332-2.388-5.332-5.332s2.388-5.332 5.332-5.332c2.944 0 5.332 2.388 5.332 5.332s-2.388 5.332-5.332 5.332z"></path>
<path fill="#afb1b8" style="fill: var(--color3, #afb1b8)" d="M26.524 7.458c0 1.060-0.859 1.919-1.919 1.919s-1.919-0.859-1.919-1.919c0-1.060 0.859-1.919 1.919-1.919s1.919 0.859 1.919 1.919z"></path>
</symbol>
<symbol id="icon-linkedin-1" viewBox="0 0 32 32">
<path fill="#afb1b8" style="fill: var(--color3, #afb1b8)" d="M31.992 32v-0.001h0.008v-11.736c0-5.741-1.236-10.164-7.948-10.164-3.227 0-5.392 1.771-6.276 3.449h-0.093v-2.913h-6.364v21.364h6.627v-10.579c0-2.785 0.528-5.479 3.977-5.479 3.399 0 3.449 3.179 3.449 5.657v10.401h6.62z"></path>
<path fill="#afb1b8" style="fill: var(--color3, #afb1b8)" d="M0.528 10.636h6.635v21.364h-6.635v-21.364z"></path>
<path fill="#afb1b8" style="fill: var(--color3, #afb1b8)" d="M3.843 0c-2.121 0-3.843 1.721-3.843 3.843s1.721 3.879 3.843 3.879c2.121 0 3.843-1.757 3.843-3.879-0.001-2.121-1.723-3.843-3.843-3.843v0z"></path>
</symbol>
<symbol id="icon-Object" viewBox="0 0 34 32">
<path fill="#afb1b8" style="fill: var(--color3, #afb1b8)" d="M5.643 31.315c0.012 0 0.024 0.003 0.035 0.007s0.021 0.011 0.029 0.018l0.166 0.159c-0.129 0.129-0.288 0.231-0.467 0.302-0.21 0.076-0.435 0.113-0.663 0.108-0.213 0.004-0.426-0.031-0.623-0.101-0.178-0.065-0.338-0.162-0.469-0.285-0.134-0.128-0.237-0.278-0.303-0.44-0.073-0.182-0.108-0.373-0.106-0.565-0.003-0.193 0.036-0.386 0.114-0.567 0.073-0.164 0.182-0.314 0.322-0.44 0.142-0.124 0.312-0.222 0.499-0.287 0.205-0.069 0.422-0.103 0.642-0.101 0.204-0.004 0.407 0.027 0.596 0.092 0.165 0.062 0.316 0.148 0.447 0.255l-0.139 0.17c-0.010 0.012-0.022 0.022-0.035 0.031-0.016 0.010-0.036 0.014-0.056 0.013-0.022-0.001-0.042-0.008-0.060-0.018l-0.075-0.045-0.104-0.058c-0.045-0.021-0.091-0.040-0.139-0.056-0.062-0.019-0.125-0.034-0.189-0.045-0.082-0.013-0.164-0.019-0.247-0.018-0.158-0.002-0.315 0.024-0.461 0.076-0.136 0.048-0.26 0.121-0.361 0.213-0.104 0.098-0.183 0.214-0.235 0.339-0.058 0.144-0.087 0.295-0.085 0.448-0.002 0.155 0.026 0.309 0.085 0.455 0.051 0.125 0.129 0.239 0.231 0.338 0.095 0.092 0.213 0.163 0.345 0.209 0.136 0.049 0.281 0.073 0.428 0.072 0.085 0.001 0.17-0.004 0.253-0.014 0.137-0.015 0.268-0.056 0.384-0.121 0.058-0.033 0.113-0.071 0.164-0.112 0.021-0.018 0.049-0.028 0.079-0.029z"></path>
<path fill="#afb1b8" style="fill: var(--color3, #afb1b8)" d="M10.441 30.517c0.003 0.192-0.035 0.382-0.112 0.561-0.068 0.163-0.174 0.311-0.313 0.436s-0.306 0.222-0.491 0.286c-0.407 0.135-0.856 0.135-1.263 0-0.184-0.065-0.35-0.163-0.488-0.287-0.138-0.127-0.246-0.276-0.316-0.44-0.15-0.364-0.15-0.761 0-1.125 0.071-0.164 0.178-0.314 0.316-0.442 0.139-0.12 0.305-0.214 0.488-0.276 0.406-0.137 0.857-0.137 1.263 0 0.185 0.065 0.351 0.163 0.49 0.287 0.137 0.125 0.243 0.273 0.314 0.435 0.077 0.181 0.115 0.372 0.112 0.565zM10.005 30.517c0.003-0.153-0.023-0.306-0.079-0.451-0.047-0.125-0.122-0.239-0.222-0.338-0.097-0.093-0.217-0.166-0.351-0.213-0.296-0.099-0.623-0.099-0.918 0-0.134 0.047-0.254 0.12-0.351 0.213-0.101 0.097-0.178 0.212-0.224 0.338-0.106 0.294-0.106 0.609 0 0.903 0.047 0.125 0.123 0.24 0.224 0.338 0.098 0.092 0.217 0.164 0.351 0.211 0.296 0.096 0.622 0.096 0.918 0 0.134-0.047 0.254-0.119 0.351-0.211 0.1-0.098 0.175-0.213 0.222-0.338 0.056-0.145 0.082-0.298 0.079-0.451z"></path>
<path fill="#afb1b8" style="fill: var(--color3, #afb1b8)" d="M13.715 30.99l0.044 0.101c0.017-0.036 0.031-0.069 0.048-0.101 0.016-0.034 0.034-0.067 0.054-0.099l1.062-1.677c0.021-0.029 0.039-0.047 0.060-0.052 0.028-0.007 0.058-0.011 0.087-0.009h0.314v2.727h-0.372v-2.005c0-0.025 0-0.054 0-0.085-0.002-0.031-0.002-0.063 0-0.094l-1.068 1.7c-0.014 0.025-0.035 0.047-0.063 0.062s-0.059 0.023-0.091 0.023h-0.060c-0.032 0-0.064-0.007-0.091-0.022s-0.049-0.037-0.062-0.062l-1.099-1.711c0 0.032 0 0.065 0 0.097s0 0.061 0 0.087v2.005h-0.359v-2.722h0.314c0.030-0.002 0.059 0.002 0.087 0.009 0.026 0.011 0.046 0.030 0.058 0.052l1.084 1.678c0.021 0.031 0.039 0.064 0.054 0.097z"></path>
<path fill="#afb1b8" style="fill: var(--color3, #afb1b8)" d="M17.71 30.855v1.021h-0.415v-2.723h0.926c0.175-0.003 0.349 0.017 0.517 0.059 0.134 0.033 0.259 0.091 0.366 0.17 0.092 0.074 0.163 0.165 0.208 0.267 0.049 0.111 0.073 0.229 0.071 0.348 0.002 0.119-0.024 0.238-0.077 0.348-0.050 0.104-0.127 0.198-0.224 0.273-0.107 0.082-0.232 0.143-0.368 0.18-0.162 0.045-0.331 0.066-0.501 0.063l-0.503-0.007zM17.71 30.562h0.503c0.109 0.001 0.218-0.013 0.322-0.041 0.086-0.025 0.165-0.065 0.233-0.117 0.062-0.050 0.111-0.112 0.141-0.18 0.034-0.073 0.051-0.151 0.050-0.229 0.005-0.076-0.009-0.151-0.042-0.222s-0.082-0.134-0.145-0.186c-0.159-0.108-0.358-0.16-0.559-0.146h-0.503v1.122z"></path>
<path fill="#afb1b8" style="fill: var(--color3, #afb1b8)" d="M23.294 31.88h-0.328c-0.033 0.001-0.065-0.008-0.091-0.025-0.024-0.017-0.042-0.039-0.054-0.063l-0.282-0.659h-1.419l-0.293 0.659c-0.011 0.024-0.029 0.045-0.052 0.061-0.026 0.018-0.060 0.028-0.093 0.027h-0.328l1.246-2.727h0.432l1.263 2.727zM21.237 30.867h1.172l-0.494-1.11c-0.038-0.084-0.069-0.169-0.093-0.256l-0.048 0.143c-0.014 0.043-0.031 0.083-0.046 0.116l-0.49 1.108z"></path>
<path fill="#afb1b8" style="fill: var(--color3, #afb1b8)" d="M25.089 29.165c0.025 0.012 0.046 0.029 0.062 0.049l1.818 2.056c0-0.032 0-0.065 0-0.096s0-0.061 0-0.090v-1.931h0.372v2.727h-0.208c-0.030 0.001-0.059-0.005-0.085-0.016-0.026-0.013-0.048-0.030-0.067-0.050l-1.816-2.054c0.002 0.031 0.002 0.063 0 0.094 0 0.031 0 0.058 0 0.083v1.944h-0.372v-2.727h0.22c0.026-0.001 0.051 0.004 0.075 0.013z"></path>
<path fill="#afb1b8" style="fill: var(--color3, #afb1b8)" d="M30.402 30.795v1.083h-0.415v-1.083l-1.149-1.642h0.372c0.032-0.002 0.064 0.007 0.089 0.023 0.023 0.018 0.042 0.038 0.056 0.061l0.719 1.059c0.029 0.045 0.054 0.087 0.075 0.126s0.037 0.078 0.052 0.116l0.054-0.117c0.020-0.043 0.044-0.084 0.071-0.125l0.708-1.067c0.015-0.021 0.033-0.041 0.054-0.058 0.025-0.019 0.057-0.028 0.089-0.027h0.376l-1.151 1.65z"></path>
<path fill="#afb1b8" style="fill: var(--color3, #afb1b8)" d="M13.51 24.576c0.181 0.020 0.364 0.036 0.548 0.051 2.803-1.089 5.174-2.873 6.817-5.126s2.485-4.878 2.421-7.546l-3.089-2.684c0.628 2.84 0.334 5.776-0.849 8.479s-3.208 5.067-5.849 6.827z"></path>
<path fill="#afb1b8" style="fill: var(--color3, #afb1b8)" d="M12.407 24.451l0.083 0.014c2.822-1.754 4.974-4.203 6.176-7.030s1.402-5.904 0.571-8.83l-4.4-3.823c1.78 3.142 2.496 6.659 2.066 10.141s-1.989 6.786-4.496 9.528z"></path>
<path fill="#afb1b8" style="fill: var(--color3, #afb1b8)" d="M27.328 15.106c-0.747 2.931-2.563 5.574-5.177 7.537-0.763 0.576-1.587 1.090-2.46 1.534 2.128-0.544 4.085-1.504 5.718-2.809s2.9-2.917 3.703-4.714l-1.784-1.549z"></path>
<path fill="#afb1b8" style="fill: var(--color3, #afb1b8)" d="M26.628 14.674l-2.541-2.207c-0.049 2.517-0.872 4.976-2.385 7.123s-3.66 3.902-6.217 5.084h0.012c0.57-0 1.139-0.030 1.705-0.088 2.39-0.848 4.502-2.196 6.147-3.926s2.771-3.785 3.278-5.985z"></path>
<path fill="#afb1b8" style="fill: var(--color3, #afb1b8)" d="M12.774 3.17l-3.031-2.637c-2.709 0.91-5.040 2.509-6.686 4.588s-2.531 4.542-2.54 7.066v0c0.010 2.789 1.090 5.495 3.070 7.69s4.745 3.754 7.859 4.43c2.78-2.942 4.407-6.579 4.646-10.38s-0.924-7.569-3.319-10.757z"></path>
<path fill="#afb1b8" style="fill: var(--color3, #afb1b8)" d="M33.63 14.268c-0.011-3.309-1.529-6.479-4.221-8.818s-6.342-3.658-10.15-3.668c-1.76-0.002-3.504 0.281-5.146 0.832l18.557 16.123c0.635-1.425 0.961-2.94 0.96-4.469z"></path>
</symbol>
<symbol id="icon-smartphone" viewBox="0 0 20 32">
<path fill="#757575" style="fill: var(--color5, #757575)" d="M17 0h-14c-1.654 0-3 1.346-3 3v26c0 1.654 1.346 3 3 3h14c1.654 0 3-1.346 3-3v-26c0-1.654-1.346-3-3-3zM3 2h14c0.552 0 1 0.448 1 1v21h-16v-21c0-0.552 0.448-1 1-1zM17 30h-14c-0.552 0-1-0.448-1-1v-3h16v3c0 0.552-0.448 1-1 1z"></path>
<path fill="#757575" style="fill: var(--color5, #757575)" d="M4.707 27.478c0.391 0.365 0.391 0.956 0 1.321s-1.024 0.365-1.414 0c-0.391-0.365-0.391-0.956 0-1.321s1.024-0.365 1.414 0z"></path>
</symbol>
<symbol id="icon-twitter" viewBox="0 0 32 32">
<path fill="#afb1b8" style="fill: var(--color3, #afb1b8)" d="M32 6.078c-1.19 0.522-2.458 0.868-3.78 1.036 1.36-0.812 2.398-2.088 2.886-3.626-1.268 0.756-2.668 1.29-4.16 1.588-1.204-1.282-2.92-2.076-4.792-2.076-3.632 0-6.556 2.948-6.556 6.562 0 0.52 0.044 1.020 0.152 1.496-5.454-0.266-10.28-2.88-13.522-6.862-0.566 0.982-0.898 2.106-0.898 3.316 0 2.272 1.17 4.286 2.914 5.452-1.054-0.020-2.088-0.326-2.964-0.808 0 0.020 0 0.046 0 0.072 0 3.188 2.274 5.836 5.256 6.446-0.534 0.146-1.116 0.216-1.72 0.216-0.42 0-0.844-0.024-1.242-0.112 0.85 2.598 3.262 4.508 6.13 4.57-2.232 1.746-5.066 2.798-8.134 2.798-0.538 0-1.054-0.024-1.57-0.090 2.906 1.874 6.35 2.944 10.064 2.944 12.072 0 18.672-10 18.672-18.668 0-0.29-0.010-0.57-0.024-0.848 1.302-0.924 2.396-2.078 3.288-3.406z"></path>
</symbol>
</defs>
</svg>
